<svg width="47" height="45" viewBox="0 0 47 45" fill="none" xmlns="http://www.w3.org/2000/svg">
<path fill-rule="evenodd" clip-rule="evenodd" d="M26.143 6.72712L26.742 7.46894L27.2503 8.30289L39.9405 37.4147L40.358 38.3669L40.6204 39.3013L40.7352 40.2038L40.7096 41.0597L40.5504 41.8536L40.2643 42.5697L39.8579 43.1915L39.3383 43.7017L38.7123 44.0829L37.9877 44.3169L37.1722 44.3856L36.2744 44.2707L5.85495 37.6586L4.76373 37.3118L3.76104 36.8006L2.86066 36.1483L2.07579 35.3788L1.41898 34.5167L0.902157 33.5867L0.536493 32.6137L0.332398 31.6226L0.299561 30.6379L0.446905 29.6838L0.78262 28.7838L1.3142 27.9608L19.0198 5.61583L19.5526 5.10695L20.1761 4.75677L20.8704 4.55684L21.6161 4.49902L22.3944 4.57549L23.1867 4.7788L23.9753 5.10193L24.7424 5.53833L25.4707 6.08191L26.143 6.72712Z" fill="url(#paint0_linear_208_16207)" fill-opacity="0.35"/>
<g filter="url(#filter0_b_208_16207)">
<path fill-rule="evenodd" clip-rule="evenodd" d="M0.509139 28.653L1.05308 27.8051L18.0914 6.56347L18.9878 5.62053L19.8998 4.66127L20.8277 3.68518L21.772 2.69192L22.7331 1.68091L5.50541 23.2911L4.95424 24.1615L4.60614 25.1134L4.45337 26.1225L4.48743 27.1639L4.69904 28.2121L5.0782 29.2412L5.61407 30.2248L6.29507 31.1366L7.10887 31.9505L8.04242 32.6404L9.08204 33.181L10.2135 33.5478L42.3748 41.0079L43.3057 41.1294L44.1512 41.0568L44.9026 40.8092L43.6914 41.5063L42.5024 42.1906L41.3349 42.8625L40.1885 43.5224L39.0624 44.1704L38.3237 44.419L37.4965 44.4997L36.5897 44.3939L5.46669 37.6203L4.37822 37.2827L3.38108 36.7766L2.48854 36.1255L1.71337 35.3535L1.06772 34.4853L0.563092 33.5459L0.210305 32.5604L0.0194789 31.5538L0 30.5509L0.160557 29.576L0.509139 28.653Z" fill="url(#paint1_linear_208_16207)" fill-opacity="0.6"/>
</g>
<g filter="url(#filter1_b_208_16207)">
<path fill-rule="evenodd" clip-rule="evenodd" d="M30.1188 2.85652L30.7398 3.64109L31.2669 4.52311L46.176 33.7569L46.6088 34.764L46.8809 35.7523L47 36.7068L46.9735 37.6121L46.8084 38.4518L46.5117 39.2091L46.0904 39.8667L45.5515 40.4064L44.9026 40.8095L44.1512 41.057L43.3057 41.1297L42.3748 41.0082L10.2134 33.548L9.08202 33.1813L8.04239 32.6406L7.10884 31.9507L6.29504 31.1369L5.61404 30.2251L5.07817 29.2414L4.69903 28.2124L4.48742 27.1642L4.45337 26.1228L4.60614 25.1136L4.95423 24.1618L5.50539 23.2914L22.7331 1.68117L23.2855 1.14297L23.932 0.772601L24.6519 0.561152L25.4251 0.5L26.232 0.580873L27.0536 0.7959L27.8712 1.13766L28.6666 1.59921L29.4217 2.17412L30.1188 2.85652Z" fill="url(#paint2_linear_208_16207)" fill-opacity="0.2"/>
<path d="M29.0941 2.55314L29.7464 3.19166L30.3274 3.92572L30.8291 4.76519L45.7231 33.9695L46.1359 34.9299L46.3892 35.8501L46.4991 36.7306L46.4749 37.5561L46.3264 38.3113L46.0641 38.9809L45.6985 39.5516L45.2386 40.0122L44.6894 40.3533L44.0502 40.5639L43.3168 40.6269L42.4638 40.5155L10.3473 33.0658L9.27579 32.7185L8.30795 32.2152L7.43601 31.5708L6.67408 30.8088L6.03602 29.9545L5.53471 29.0343L5.18152 28.0757L4.98579 27.1061L4.9546 26.1523L5.09299 25.2382L5.40538 24.3839L5.91329 23.5818L23.1045 2.0174L23.589 1.54532L24.1294 1.23573L24.743 1.05551L25.4198 1.00198L26.1432 1.07448L26.8931 1.27073L27.6483 1.58644L28.3886 2.01597L29.0941 2.55314Z" stroke="url(#paint3_linear_208_16207)"/>
</g>
<g filter="url(#filter2_d_208_16207)">
<path fill-rule="evenodd" clip-rule="evenodd" d="M25.9062 8.45475L25.8534 8.54151L25.4357 8.82855L25.018 9.11559L25.0587 9.00956L25.1117 8.92301L25.5089 8.68888L25.9062 8.45475ZM25.177 8.8559L25.9708 8.38783L25.9714 8.38752L25.9062 8.45475L25.1122 8.9227L25.1117 8.92301L25.177 8.8559ZM25.8534 8.54151L25.4357 8.82855L25.018 9.11559L24.9896 9.24111L25.3873 9.0075L25.7849 8.77389L25.8129 8.64793L25.8534 8.54151ZM25.1882 8.84926L25.177 8.8559L25.178 8.85528L25.2545 8.8082L26.0375 8.34653L26.0488 8.33984L26.0478 8.34046L25.9714 8.38752L25.1882 8.84926ZM25.7849 8.77389L25.3873 9.0075L24.9896 9.24111L24.9737 9.38617L24.97 9.55079L25.2044 22.2445L25.2043 22.2451L25.2127 22.4037L25.232 22.5525L25.2621 22.6915L25.3031 22.8204L25.3548 22.9395L25.4173 23.0485L25.4907 23.1475L25.5748 23.2364L25.6697 23.3152L25.7752 23.3839L25.8914 23.4425L26.0183 23.491L27.4667 23.9675L27.5915 24.0018L27.7057 24.0191L27.8092 24.0196L27.9021 24.0032L28.6452 23.6298L28.6455 23.6297L28.5419 23.6289L28.4276 23.6112L28.3026 23.5764L26.8515 23.094L26.7244 23.045L26.6079 22.9858L26.5021 22.9165L26.4069 22.837L26.3224 22.7475L26.2486 22.6479L26.1858 22.5381L26.1337 22.4184L26.0923 22.2887L26.0618 22.1489L26.0423 21.9993L26.0335 21.8398L25.766 9.08538L25.766 9.08491L25.7692 8.91955L25.7849 8.77389ZM27.8326 30.4595L27.6917 30.426L25.7554 29.8534L25.6115 29.8027L25.48 29.7393L25.361 29.6633L25.2546 29.5746L25.1608 29.4732L25.0798 29.3592L25.0113 29.2327L24.9557 29.0936L24.9127 28.942L24.8825 28.778L24.8651 28.6016L24.8604 28.4129L24.8778 26.3382L24.8856 26.156L24.9057 25.9939L24.9382 25.8519L24.9829 25.73L25.0399 25.6281L25.1091 25.5462L25.1906 25.4843L26.0278 25.0955L26.028 25.0954L25.9467 25.1574L25.8776 25.2396L25.8208 25.3418L25.7763 25.4643L25.7442 25.6069L25.7244 25.7698L25.7171 25.9529L25.705 28.0383L25.7102 28.228L25.7281 28.4053L25.7588 28.5703L25.8022 28.7228L25.8583 28.8627L25.9271 28.9901L26.0086 29.1048L26.1028 29.2069L26.2095 29.2963L26.3288 29.3731L26.4606 29.4371L28.5448 30.0682L28.686 30.1023L28.8146 30.1164L28.9307 30.1107L28.1807 30.4417L28.0771 30.4674L27.9611 30.4733L27.8326 30.4595ZM28.9307 30.1107L29.0344 30.0851L28.1807 30.4417L28.9307 30.1107Z" fill="url(#paint4_linear_208_16207)"/>
<path fill-rule="evenodd" clip-rule="evenodd" d="M26.2407 8.30322L26.2407 8.30322L26.2407 8.30322L26.2407 8.30322L26.1387 8.31195L26.0489 8.34013L26.0489 8.34013L26.0489 8.34015L25.9714 8.38781L25.9063 8.455L25.9063 8.45502L25.9063 8.45503L25.8535 8.5418L25.813 8.64817L25.813 8.64817L25.813 8.64817L25.813 8.64817L25.813 8.64817L26.0489 8.34015L26.0489 8.34014L26.0489 8.34015L25.813 8.64817L25.7693 8.91984L25.7661 9.08518L26.0335 21.8393L26.0335 21.8401L26.0424 21.9996L26.062 22.1492L26.0925 22.2889L26.1338 22.4186L26.1859 22.5384L26.2488 22.6481L26.3225 22.7478L26.4069 22.8373L26.5021 22.9168L26.608 22.9861L26.7245 23.0453L26.8515 23.0943L28.3027 23.5767L28.4277 23.6115L28.542 23.6292L28.6456 23.6299L28.7386 23.6137L28.8209 23.5805L28.8209 23.5805L28.821 23.5804L28.8927 23.5303L28.9537 23.4634L28.9538 23.4633L28.9538 23.4633L28.9539 23.4633L28.9539 23.4632L29.0044 23.3794L29.0445 23.2787L29.0445 23.2786L29.0931 23.0268L29.0931 23.0267L29.1017 22.8755L29.36 10.5327L29.3599 10.5325L29.3569 10.3679L29.3418 10.2126L29.3148 10.0668L29.2758 9.9304L29.2248 9.80336L29.1618 9.68562L29.0868 9.57715L28.9997 9.47792L28.9006 9.38791L28.7893 9.30708L28.6658 9.23544L28.5301 9.17296L26.62 8.39338L26.4814 8.34398L26.4814 8.34398L26.4813 8.34397L26.3549 8.31392L26.2407 8.30323L26.2407 8.30322ZM29.0446 23.2786L29.0741 23.161L29.0931 23.0267L29.0446 23.2786ZM29.2524 26.3186L29.1856 26.1948L29.1069 26.0829L29.0161 25.9828L28.9133 25.8946L28.7984 25.8183L28.6713 25.7537H28.6713L28.532 25.701L26.6182 25.0854L26.4759 25.0476L26.3457 25.0297L26.2276 25.0317L26.1218 25.0537L26.0281 25.0957L25.9468 25.1577H25.9468L25.9466 25.1579L25.8777 25.2398L25.821 25.3418L25.8208 25.3421L25.8207 25.3425L25.7764 25.4646L25.7444 25.6068L25.7443 25.6072L25.7442 25.6072L25.7442 25.6074L25.7442 25.6078L25.7245 25.7701L25.7172 25.9531L25.7172 25.9532L25.7051 28.0386L25.7103 28.2283L25.7282 28.4056L25.7589 28.5706L25.8023 28.723L25.8584 28.8629L25.8584 28.863L25.8584 28.863L25.9272 28.9904L26.0087 29.1051L26.1029 29.2072L26.2096 29.2966L26.2097 29.2967L26.2098 29.2968L26.3289 29.3733L26.4605 29.4372L26.4607 29.4374L28.5449 30.0685L28.6861 30.1025L28.8147 30.1167L28.9308 30.111L29.0345 30.0854L29.1257 30.04L29.2044 29.9749L29.2045 29.9749L29.2046 29.9749L29.271 29.89L29.3251 29.7855L29.3251 29.7853L29.3252 29.7852L29.3252 29.7851L29.3669 29.6613L29.3964 29.5176L29.3964 29.5175L29.4137 29.3541L29.4187 29.1711L29.4187 29.1711L29.4071 27.1182L29.4 26.934L29.381 26.7621L29.3501 26.6022L29.3072 26.4544L29.2524 26.3186ZM29.3501 26.6022L29.4 26.934L29.4187 29.1711L29.4 26.934L29.3501 26.6022L29.1069 26.0829L29.1069 26.0829L29.3501 26.6022ZM25.785 8.77418L25.813 8.64817L25.7693 8.91984L25.785 8.77418Z" fill="url(#paint5_linear_208_16207)" fill-opacity="0.8"/>
</g>
<defs>
<filter id="filter0_b_208_16207" x="-30" y="-28.3191" width="104.903" height="102.819" filterUnits="userSpaceOnUse" color-interpolation-filters="sRGB">
<feFlood flood-opacity="0" result="BackgroundImageFix"/>
<feGaussianBlur in="BackgroundImageFix" stdDeviation="15"/>
<feComposite in2="SourceAlpha" operator="in" result="effect1_backgroundBlur_208_16207"/>
<feBlend mode="normal" in="SourceGraphic" in2="effect1_backgroundBlur_208_16207" result="shape"/>
</filter>
<filter id="filter1_b_208_16207" x="-8.54663" y="-12.5" width="68.5466" height="66.6298" filterUnits="userSpaceOnUse" color-interpolation-filters="sRGB">
<feFlood flood-opacity="0" result="BackgroundImageFix"/>
<feGaussianBlur in="BackgroundImageFix" stdDeviation="6.5"/>
<feComposite in2="SourceAlpha" operator="in" result="effect1_backgroundBlur_208_16207"/>
<feBlend mode="normal" in="SourceGraphic" in2="effect1_backgroundBlur_208_16207" result="shape"/>
</filter>
<filter id="filter2_d_208_16207" x="10.8604" y="1.30322" width="24.5583" height="42.1702" filterUnits="userSpaceOnUse" color-interpolation-filters="sRGB">
<feFlood flood-opacity="0" result="BackgroundImageFix"/>
<feColorMatrix in="SourceAlpha" type="matrix" values="0 0 0 0 0 0 0 0 0 0 0 0 0 0 0 0 0 0 127 0" result="hardAlpha"/>
<feOffset dx="-4" dy="3"/>
<feGaussianBlur stdDeviation="5"/>
<feComposite in2="hardAlpha" operator="out"/>
<feColorMatrix type="matrix" values="0 0 0 0 0.333333 0 0 0 0 0.260549 0 0 0 0 0.207843 0 0 0 0.3 0"/>
<feBlend mode="normal" in2="BackgroundImageFix" result="effect1_dropShadow_208_16207"/>
<feBlend mode="normal" in="SourceGraphic" in2="effect1_dropShadow_208_16207" result="shape"/>
</filter>
<linearGradient id="paint0_linear_208_16207" x1="1.30412" y1="46.0634" x2="34.615" y2="3.24686" gradientUnits="userSpaceOnUse">
<stop offset="0.268633" stop-color="#EFEAD5"/>
<stop offset="0.763637" stop-color="#E7E5B7" stop-opacity="0.39"/>
</linearGradient>
<linearGradient id="paint1_linear_208_16207" x1="-11.0275" y1="7.48388" x2="29.3525" y2="57.3373" gradientUnits="userSpaceOnUse">
<stop offset="0.325325" stop-color="#FFEDBE"/>
<stop offset="0.51875" stop-color="#FFD276"/>
<stop offset="0.976143" stop-color="#F56464"/>
</linearGradient>
<linearGradient id="paint2_linear_208_16207" x1="5.80548" y1="42.6589" x2="41.2022" y2="-1.94422" gradientUnits="userSpaceOnUse">
<stop offset="0.268633" stop-color="#EFEAD5"/>
<stop offset="0.763637" stop-color="#B48571"/>
</linearGradient>
<linearGradient id="paint3_linear_208_16207" x1="4.49284" y1="31.4125" x2="22.1924" y2="17.1912" gradientUnits="userSpaceOnUse">
<stop stop-color="white" stop-opacity="0.27"/>
<stop offset="0.688828" stop-color="white" stop-opacity="0"/>
</linearGradient>
<linearGradient id="paint4_linear_208_16207" x1="22.9134" y1="14.6055" x2="30.4802" y2="14.9602" gradientUnits="userSpaceOnUse">
<stop offset="0.334199" stop-color="#CAB48A"/>
<stop offset="0.590808" stop-color="#C0A36B"/>
</linearGradient>
<linearGradient id="paint5_linear_208_16207" x1="37.2907" y1="29.912" x2="42.7224" y2="22.3885" gradientUnits="userSpaceOnUse">
<stop offset="0.306695" stop-color="white" stop-opacity="0.85"/>
<stop offset="1" stop-color="#E7D4B7" stop-opacity="0.64"/>
</linearGradient>
</defs>
</svg>
