<svg width="24" height="24" viewBox="0 0 24 24" fill="none" xmlns="http://www.w3.org/2000/svg">
<rect width="24" height="24" rx="12" fill="white"/>
<path opacity="0.3" d="M17.7673 8.24642C17.8875 8.10505 18.059 8.01723 18.244 8.00228C18.4289 7.98732 18.6123 8.04646 18.7536 8.16668C18.895 8.28689 18.9828 8.45834 18.9978 8.64331C19.0127 8.82828 18.9536 9.01161 18.8334 9.15297L12.8876 16.148C12.8273 16.219 12.7534 16.2772 12.6703 16.3192C12.5871 16.3612 12.4965 16.3862 12.4036 16.3927C12.3106 16.3993 12.2174 16.3872 12.1292 16.3571C12.041 16.3271 11.9597 16.2798 11.8901 16.2179L8.74234 13.4199C8.67171 13.3595 8.61382 13.2856 8.57207 13.2026C8.53032 13.1195 8.50555 13.029 8.49919 12.9362C8.49284 12.8435 8.50503 12.7504 8.53506 12.6624C8.56509 12.5745 8.61236 12.4933 8.67409 12.4238C8.73583 12.3543 8.81079 12.2979 8.89461 12.2577C8.97843 12.2175 9.06942 12.1944 9.16227 12.1898C9.25511 12.1851 9.34794 12.1991 9.43534 12.2307C9.52274 12.2624 9.60295 12.3112 9.67128 12.3742L12.2846 14.6965L17.7673 8.24712V8.24642Z" fill="#69737C"/>
<path d="M14.2698 8.24642C14.3293 8.17642 14.402 8.11883 14.4838 8.07694C14.5656 8.03505 14.6548 8.00968 14.7464 8.00228C14.838 7.99487 14.9301 8.00558 15.0176 8.03379C15.105 8.06199 15.1861 8.10715 15.2561 8.16667C15.3261 8.2262 15.3836 8.29893 15.4255 8.38071C15.4674 8.46249 15.4928 8.55172 15.5002 8.64331C15.5076 8.73489 15.4969 8.82704 15.4687 8.91449C15.4405 9.00194 15.3953 9.08297 15.3358 9.15297L9.39004 16.148C9.32971 16.219 9.25582 16.2772 9.17271 16.3192C9.08959 16.3612 8.99891 16.3862 8.906 16.3927C8.81309 16.3993 8.71981 16.3871 8.63164 16.3571C8.54347 16.3271 8.46218 16.2798 8.39255 16.2179L5.24479 13.4199C5.17415 13.3595 5.11626 13.2856 5.07452 13.2026C5.03277 13.1195 5.00799 13.029 5.00164 12.9362C4.99528 12.8435 5.00748 12.7504 5.03751 12.6624C5.06754 12.5744 5.1148 12.4933 5.17653 12.4238C5.23827 12.3543 5.31324 12.2979 5.39706 12.2577C5.48087 12.2175 5.57186 12.1944 5.66471 12.1898C5.75755 12.1851 5.85038 12.1991 5.93778 12.2307C6.02518 12.2624 6.10539 12.3112 6.17372 12.3742L8.78707 14.6965L14.2698 8.24712V8.24642Z" fill="#69737C"/>
</svg>
