<svg width="32" height="32" viewBox="0 0 32 32" fill="none" xmlns="http://www.w3.org/2000/svg">
<g filter="url(#filter0_d_88_4917)">
<rect x="4" y="3" width="24" height="24" rx="12" fill="#0FB783"/>
</g>
<path d="M10.5208 18.2849L10.5995 18.3465L10.5208 18.2849C10.3057 18.5596 10.2238 18.873 10.1878 19.1995C10.1537 19.5078 10.1555 19.8889 10.1575 20.3356L10.1575 20.3412L10.163 21.5541C10.1644 21.858 10.4143 22.1013 10.7189 22.1C11.0235 22.0987 11.2713 21.8531 11.2699 21.5492L11.2646 20.3622C11.2631 20.0319 11.2623 19.7791 11.2703 19.5758C12.4688 20.7932 14.1454 21.5503 16 21.5503C19.644 21.5503 22.6 18.6295 22.6 15.024C22.6 14.7201 22.3511 14.4757 22.0465 14.4757C21.7419 14.4757 21.493 14.7201 21.493 15.024C21.493 18.0216 19.0348 20.4536 16 20.4536C14.4142 20.4536 12.9859 19.79 11.9827 18.7271C12.2118 18.7105 12.5097 18.7112 12.9338 18.7131L14.1344 18.7184C14.439 18.7197 14.689 18.4764 14.6904 18.1725C14.6917 17.8686 14.444 17.6231 14.1394 17.6217L12.9125 17.6163L12.907 17.6163C12.455 17.6143 12.0698 17.6126 11.7581 17.6462C11.4283 17.6818 11.1117 17.7626 10.8342 17.975C10.7169 18.0647 10.6116 18.1688 10.5208 18.2849ZM21.7873 8.44589C21.786 8.14198 21.536 7.89866 21.2314 7.90001C20.9268 7.90135 20.679 8.14688 20.6804 8.45079L20.6857 9.63783C20.6872 9.96713 20.688 10.2194 20.6801 10.4224C19.4852 9.23419 17.8292 8.49779 16 8.49779C12.356 8.49779 9.4 11.4186 9.4 15.024C9.4 15.3279 9.64888 15.5724 9.95349 15.5724C10.2581 15.5724 10.507 15.3279 10.507 15.024C10.507 12.0264 12.9652 9.59448 16 9.59448C17.5617 9.59448 18.9705 10.238 19.9711 11.2726C19.7416 11.2895 19.4428 11.2888 19.0166 11.2869L17.8159 11.2816C17.5113 11.2803 17.2613 11.5236 17.26 11.8275C17.2586 12.1314 17.5064 12.3769 17.811 12.3783L19.0378 12.3837L19.0433 12.3837C19.4953 12.3857 19.8806 12.3874 20.1922 12.3538C20.522 12.3182 20.8386 12.2374 21.1162 12.025C21.2334 11.9353 21.3388 11.8312 21.4296 11.7151C21.6446 11.4404 21.7265 11.127 21.7626 10.8005C21.7966 10.4922 21.7949 10.1111 21.7928 9.66434L21.7928 9.65885L21.7873 8.44589Z" fill="white" stroke="white" stroke-width="0.2" stroke-linecap="round"/>
<defs>
<filter id="filter0_d_88_4917" x="0" y="0" width="32" height="32" filterUnits="userSpaceOnUse" color-interpolation-filters="sRGB">
<feFlood flood-opacity="0" result="BackgroundImageFix"/>
<feColorMatrix in="SourceAlpha" type="matrix" values="0 0 0 0 0 0 0 0 0 0 0 0 0 0 0 0 0 0 127 0" result="hardAlpha"/>
<feOffset dy="1"/>
<feGaussianBlur stdDeviation="2"/>
<feComposite in2="hardAlpha" operator="out"/>
<feColorMatrix type="matrix" values="0 0 0 0 0 0 0 0 0 0 0 0 0 0 0 0 0 0 0.04 0"/>
<feBlend mode="normal" in2="BackgroundImageFix" result="effect1_dropShadow_88_4917"/>
<feBlend mode="normal" in="SourceGraphic" in2="effect1_dropShadow_88_4917" result="shape"/>
</filter>
</defs>
</svg>
