<svg width="41" height="40" viewBox="0 0 41 40" fill="none" xmlns="http://www.w3.org/2000/svg">
<path d="M40.5 0H0.5V40H40.5V0Z" fill="white"/>
<path opacity="0.15" d="M27.166 31.3667C27.1651 31.3614 27.1651 31.3559 27.166 31.3506H13.8379C13.8405 32.4411 13.4468 33.4952 12.7305 34.3174C12.0141 35.1395 11.0239 35.6736 9.94336 35.8203C8.8628 35.967 7.76508 35.7167 6.85547 35.1152C5.94585 34.5138 5.28623 33.6025 4.99805 32.5508C4.98589 32.518 4.97529 32.4846 4.9668 32.4507C4.87688 32.0926 4.83116 31.7247 4.83008 31.3555H2.50391C2.16158 31.3571 1.83221 31.2265 1.58398 30.9907C1.33576 30.755 1.18787 30.4328 1.17188 30.0908C1.17188 30.0678 1.17188 30.0445 1.17188 30.0215V10.5215C1.17161 9.81484 1.45206 9.13695 1.95117 8.63672C2.45028 8.13649 3.12735 7.85484 3.83398 7.85352H31.1484C32.1207 7.86811 33.0696 8.15544 33.8867 8.68262C34.7434 9.22881 35.4253 10.0094 35.8516 10.9316H35.5391C35.8931 10.9316 35.8535 10.9315 35.8555 10.9365C36.5935 12.5435 37.1557 13.7607 37.5977 14.7197C38.3738 16.1991 38.9755 17.7637 39.3906 19.3818L39.4023 19.4307C39.5777 20.1439 39.6974 20.8697 39.7598 21.6016C39.8128 22.1626 39.834 22.7165 39.834 23.2915C39.859 24.7145 39.834 26.7167 39.834 30.0117C39.8342 30.187 39.7994 30.3605 39.7324 30.5225C39.6655 30.6844 39.5673 30.8316 39.4434 30.9556C39.3194 31.0795 39.1737 31.1777 39.0117 31.2446C38.8498 31.3116 38.6753 31.346 38.5 31.3457H36.166C36.1683 32.5392 35.6958 33.6848 34.8535 34.5303C34.0112 35.3758 32.8673 35.8517 31.6738 35.854C30.4804 35.8563 29.3357 35.3843 28.4902 34.542C27.6447 33.6997 27.1683 32.5563 27.166 31.3628V31.3667Z" fill="#4465F0"/>
<path d="M38.964 16.1185L36.464 10.6615C35.9864 9.62539 35.2223 8.74754 34.2619 8.13162C33.3015 7.5157 32.1849 7.18741 31.044 7.18553H3.833C2.94936 7.18659 2.10221 7.53808 1.47738 8.16291C0.852553 8.78774 0.501059 9.63489 0.5 10.5185L0.5 30.0185C0.5 30.549 0.710714 31.0577 1.08579 31.4327C1.46086 31.8078 1.96957 32.0185 2.5 32.0185H4.833C5.00973 32.0185 5.17923 31.9484 5.30429 31.8235C5.42935 31.6987 5.49973 31.5293 5.5 31.3525C5.49996 30.4769 5.79972 29.6277 6.34941 28.9461C6.8991 28.2645 7.66557 27.7917 8.52133 27.6063C9.37709 27.4209 10.2705 27.534 11.053 27.927C11.8355 28.3199 12.4599 28.9689 12.8223 29.766C13.1847 30.5631 13.2633 31.4602 13.0449 32.3082C12.8266 33.1561 12.3245 33.9038 11.6222 34.4267C10.9199 34.9496 10.0597 35.2164 9.18472 35.1825C8.30976 35.1486 7.47277 34.8162 6.813 34.2405C6.74875 34.1748 6.67162 34.1231 6.58644 34.0886C6.50127 34.0541 6.40988 34.0376 6.31802 34.0401C6.22616 34.0426 6.13581 34.0641 6.05263 34.1031C5.96945 34.1422 5.89523 34.198 5.83464 34.2671C5.77405 34.3362 5.72839 34.417 5.70052 34.5046C5.67266 34.5922 5.66318 34.6845 5.6727 34.7759C5.68222 34.8673 5.71052 34.9558 5.75583 35.0357C5.80114 35.1157 5.86248 35.1854 5.936 35.2405C6.80352 35.9981 7.8993 36.4442 9.04931 36.5078C10.1993 36.5714 11.3376 36.249 12.2834 35.5917C13.2292 34.9344 13.9283 33.98 14.2696 32.88C14.611 31.7799 14.575 30.5974 14.1674 29.5202C13.7598 28.4429 13.004 27.5328 12.0199 26.9342C11.0359 26.3357 9.88011 26.083 8.7361 26.2165C7.59209 26.3499 6.52546 26.8618 5.70561 27.6707C4.88577 28.4797 4.35972 29.5394 4.211 30.6815H2.5C2.3231 30.6815 2.15345 30.6113 2.02836 30.4862C1.90327 30.3611 1.833 30.1914 1.833 30.0145V24.0145H35.25C35.3397 24.018 35.4292 24.0033 35.5131 23.9714C35.597 23.9395 35.6736 23.8909 35.7382 23.8287C35.8029 23.7665 35.8544 23.6918 35.8895 23.6092C35.9247 23.5266 35.9428 23.4378 35.9428 23.348C35.9428 23.2583 35.9247 23.1694 35.8895 23.0868C35.8544 23.0042 35.8029 22.9296 35.7382 22.8673C35.6736 22.8051 35.597 22.7566 35.5131 22.7246C35.4292 22.6927 35.3397 22.6781 35.25 22.6815H1.833V10.5185C1.833 9.9881 2.04371 9.47939 2.41879 9.10432C2.79386 8.72924 3.30257 8.51853 3.833 8.51853H31.04C31.9259 8.52011 32.7929 8.77517 33.5386 9.2536C34.2842 9.73203 34.8774 10.4138 35.248 11.2185C37.948 17.1065 38.127 17.3785 38.537 18.7695H25.837V11.6005H30.365C30.4547 11.604 30.5442 11.5893 30.6281 11.5574C30.712 11.5255 30.7886 11.4769 30.8532 11.4147C30.9179 11.3525 30.9694 11.2778 31.0045 11.1952C31.0397 11.1126 31.0578 11.0238 31.0578 10.934C31.0578 10.8443 31.0397 10.7554 31.0045 10.6728C30.9694 10.5902 30.9179 10.5156 30.8532 10.4533C30.7886 10.3911 30.712 10.3426 30.6281 10.3107C30.5442 10.2787 30.4547 10.2641 30.365 10.2675H5.833C5.30257 10.2675 4.79386 10.4782 4.41879 10.8533C4.04371 11.2284 3.833 11.7371 3.833 12.2675V18.1005C3.833 18.631 4.04371 19.1397 4.41879 19.5147C4.79386 19.8898 5.30257 20.1005 5.833 20.1005H38.866C39.252 22.0325 39.166 22.6725 39.166 30.0175C39.166 30.1944 39.0957 30.3641 38.9706 30.4892C38.8456 30.6143 38.6759 30.6845 38.499 30.6845H36.789C36.6624 29.7289 36.2712 28.8277 35.6595 28.0826C35.0479 27.3375 34.2401 26.7782 33.3274 26.4679C32.4148 26.1576 31.4335 26.1085 30.4944 26.3263C29.5554 26.5442 28.6959 27.0201 28.013 27.7005C27.8929 27.8266 27.8269 27.9946 27.8291 28.1687C27.8312 28.3427 27.9013 28.5091 28.0244 28.6322C28.1475 28.7553 28.3138 28.8254 28.4879 28.8275C28.6619 28.8296 28.8299 28.7636 28.956 28.6435C29.5831 28.0166 30.4083 27.6264 31.2908 27.5396C32.1733 27.4528 33.0587 27.6747 33.7959 28.1675C34.5332 28.6603 35.0768 29.3934 35.3341 30.2421C35.5914 31.0907 35.5465 32.0023 35.207 32.8216C34.8675 33.6408 34.2545 34.317 33.4723 34.7349C32.6902 35.1528 31.7873 35.2866 30.9176 35.1134C30.0479 34.9403 29.2651 34.4709 28.7026 33.7853C28.1402 33.0997 27.8328 32.2403 27.833 31.3535C27.833 31.1766 27.7627 31.007 27.6376 30.8819C27.5126 30.7568 27.3429 30.6865 27.166 30.6865H17.866C17.7763 30.6831 17.6868 30.6977 17.6029 30.7297C17.519 30.7616 17.4424 30.8101 17.3778 30.8723C17.3131 30.9346 17.2616 31.0092 17.2264 31.0918C17.1913 31.1744 17.1732 31.2633 17.1732 31.353C17.1732 31.4428 17.1913 31.5316 17.2264 31.6142C17.2616 31.6968 17.3131 31.7715 17.3778 31.8337C17.4424 31.8959 17.519 31.9445 17.6029 31.9764C17.6868 32.0083 17.7763 32.023 17.866 32.0195H26.545C26.7057 33.2645 27.3143 34.4084 28.2571 35.2373C29.1998 36.0661 30.4122 36.5233 31.6675 36.5233C32.9228 36.5233 34.1352 36.0661 35.0779 35.2373C36.0207 34.4084 36.6293 33.2645 36.79 32.0195H38.5C39.0304 32.0195 39.5391 31.8088 39.9142 31.4337C40.2893 31.0587 40.5 30.55 40.5 30.0195V23.1465C40.5037 20.7202 39.9796 18.3221 38.964 16.1185ZM24.5 18.7685H14.667V11.6005H24.5V18.7685ZM5.167 18.1005V12.2685C5.167 12.0916 5.23727 11.922 5.36236 11.7969C5.48745 11.6718 5.6571 11.6015 5.834 11.6015H13.334V18.7685H5.834C5.74632 18.7685 5.65951 18.7512 5.57852 18.7177C5.49753 18.6841 5.42396 18.6349 5.36201 18.5728C5.30006 18.5108 5.25095 18.4371 5.21748 18.3561C5.18402 18.275 5.16687 18.1882 5.167 18.1005ZM3.211 4.72253C3.1749 4.54949 3.20897 4.36919 3.30572 4.22125C3.40247 4.07331 3.554 3.96982 3.727 3.93353C5.644 3.53353 7.592 3.21453 9.539 2.97953C9.39196 2.54587 9.1269 2.16181 8.77359 1.87051C8.42028 1.57921 7.99274 1.39221 7.539 1.33053C7.44975 1.32139 7.36325 1.29434 7.2847 1.25099C7.20614 1.20764 7.13714 1.14889 7.08182 1.07825C7.0265 1.00761 6.986 0.926542 6.96275 0.839887C6.93949 0.753232 6.93396 0.662778 6.94647 0.573934C6.95899 0.48509 6.98931 0.399684 7.0356 0.32283C7.0819 0.245975 7.14323 0.179252 7.21591 0.126651C7.28859 0.0740507 7.37114 0.0366547 7.45862 0.0167021C7.54609 -0.00325044 7.63669 -0.00534964 7.725 0.0105299C8.47286 0.113694 9.17316 0.436879 9.7369 0.939008C10.3006 1.44114 10.7024 2.09954 10.891 2.83053C17.944 2.13153 25.0625 2.51394 32 3.96453C32.1707 4.00289 32.3196 4.10683 32.4144 4.25392C32.5092 4.40101 32.5424 4.57947 32.5069 4.75083C32.4713 4.92218 32.3698 5.07269 32.2243 5.16991C32.0788 5.26713 31.9009 5.30327 31.729 5.27053C22.5869 3.35005 13.1465 3.33916 4 5.23853C3.82696 5.27463 3.64666 5.24056 3.49872 5.14381C3.35078 5.04706 3.24729 4.89553 3.211 4.72253Z" fill="#4465F0"/>
</svg>
