<svg width="40" height="40" viewBox="0 0 40 40" fill="none" xmlns="http://www.w3.org/2000/svg">
<path opacity="0.15" fill-rule="evenodd" clip-rule="evenodd" d="M24.96 4.32141V2.72141C24.96 2.38193 24.8251 2.05636 24.5851 1.81631C24.345 1.57627 24.0195 1.44141 23.68 1.44141H19.52H16.32C16.1516 1.44102 15.9849 1.47383 15.8292 1.53798C15.6736 1.60213 15.5321 1.69635 15.4129 1.81525C15.2938 1.93415 15.1992 2.07539 15.1347 2.23088C15.0702 2.38637 15.037 2.55306 15.037 2.72141V4.32141H17.6H24.96ZM27.917 10.2402H12.077C11.398 10.2402 10.7469 10.51 10.2668 10.99C9.78668 11.4701 9.51697 12.1213 9.51697 12.8002V32.8002C9.51697 33.4792 9.78668 34.1303 10.2668 34.6104C10.7469 35.0905 11.398 35.3602 12.077 35.3602H12.317L12.317 35.3613V36.0013V36.9613C12.317 37.3857 12.4855 37.7927 12.7856 38.0927C13.0856 38.3928 13.4926 38.5613 13.917 38.5613C14.3413 38.5613 14.7483 38.3928 15.0483 38.0927C15.3427 37.7984 15.5105 37.4012 15.5168 36.9856L15.517 36.9602V35.3602H24.477V35.3613H24.4769V36.0013V36.9613C24.4769 37.3857 24.6455 37.7927 24.9456 38.0927C25.2456 38.3928 25.6526 38.5613 26.0769 38.5613C26.5013 38.5613 26.9083 38.3928 27.2083 38.0927C27.498 37.8031 27.6651 37.4138 27.6763 37.0055L27.6768 36.9865L27.677 36.9602V35.3602H27.917C28.5959 35.3602 29.2471 35.0905 29.7272 34.6104C30.2073 34.1303 30.477 33.4792 30.477 32.8002V12.8002C30.477 12.1213 30.2073 11.4701 29.7272 10.99C29.2955 10.5584 28.7255 10.2968 28.1214 10.2484C28.0918 10.2452 28.062 10.2431 28.032 10.2422H28.017C27.9837 10.2409 27.9504 10.2402 27.917 10.2402Z" fill="#4465F0"/>
<path fill-rule="evenodd" clip-rule="evenodd" d="M27.913 9.60078H15.677V2.72078C15.6772 2.55112 15.7448 2.38849 15.8647 2.26853C15.9847 2.14856 16.1473 2.08105 16.317 2.08078H23.677C23.8466 2.08105 24.0093 2.14856 24.1292 2.26853C24.2492 2.38849 24.3167 2.55112 24.317 2.72078V3.68078H18.217C18.0472 3.68078 17.8844 3.74821 17.7644 3.86823C17.6444 3.98826 17.577 4.15104 17.577 4.32078C17.577 4.49052 17.6444 4.65331 17.7644 4.77333C17.8844 4.89335 18.0472 4.96078 18.217 4.96078H24.317V7.56978C24.317 7.73952 24.3844 7.90231 24.5044 8.02233C24.6244 8.14235 24.7872 8.20978 24.957 8.20978C25.1267 8.20978 25.2895 8.14235 25.4095 8.02233C25.5295 7.90231 25.597 7.73952 25.597 7.56978V2.72078C25.5964 2.21173 25.394 1.72368 25.034 1.36372C24.6741 1.00377 24.186 0.801311 23.677 0.800781H16.317C15.8079 0.801311 15.3199 1.00377 14.9599 1.36372C14.6 1.72368 14.3975 2.21173 14.397 2.72078V10.2408C14.397 10.4105 14.4644 10.5733 14.5844 10.6933C14.7044 10.8134 14.8672 10.8808 15.037 10.8808H27.917C28.426 10.8813 28.9141 11.0838 29.274 11.4437C29.634 11.8037 29.8364 12.2917 29.837 12.8008V32.8008C29.8364 33.3098 29.634 33.7979 29.274 34.1578C28.9141 34.5178 28.426 34.7202 27.917 34.7208H12.077C11.5679 34.7202 11.0799 34.5178 10.7199 34.1578C10.36 33.7979 10.1575 33.3098 10.157 32.8008V12.8008C10.1552 12.3465 10.3152 11.9063 10.6084 11.5593C10.9016 11.2122 11.3087 10.9809 11.757 10.9068C11.9245 10.8789 12.074 10.7857 12.1728 10.6476C12.2715 10.5095 12.3113 10.3378 12.2835 10.1703C12.2556 10.0028 12.1624 9.85324 12.0243 9.7545C11.8861 9.65576 11.7145 9.61593 11.547 9.64378C10.7994 9.76689 10.1201 10.1522 9.63078 10.7307C9.14151 11.3093 8.87427 12.0431 8.87697 12.8008V32.8008C8.87697 33.6495 9.21411 34.4634 9.81423 35.0635C10.4143 35.6636 11.2283 36.0008 12.077 36.0008H14.877V36.9608C14.8763 37.1408 14.8252 37.3171 14.7293 37.4695C14.6334 37.6219 14.4967 37.7443 14.3347 37.8229C14.1727 37.9015 13.9919 37.933 13.8129 37.9139C13.6338 37.8947 13.4637 37.8258 13.322 37.7148C13.1884 37.6231 13.025 37.5856 12.8648 37.6096C12.7046 37.6337 12.5594 37.7177 12.4587 37.8446C12.358 37.9714 12.3091 38.1318 12.3219 38.2933C12.3348 38.4548 12.4084 38.6054 12.528 38.7148C12.8584 38.9745 13.2552 39.1361 13.6731 39.1813C14.091 39.2264 14.5131 39.1532 14.8914 38.9701C15.2697 38.7869 15.5889 38.5012 15.8127 38.1454C16.0365 37.7896 16.1557 37.3781 16.157 36.9578V36.0008H27.037V36.9608C27.0369 37.1707 26.9681 37.3748 26.841 37.5418C26.7139 37.7089 26.5356 37.8297 26.3333 37.8857C26.131 37.9417 25.916 37.9299 25.721 37.8521C25.5261 37.7743 25.362 37.6347 25.254 37.4548C25.1663 37.3089 25.0243 37.2038 24.8592 37.1627C24.6941 37.1215 24.5193 37.1476 24.3735 37.2353C24.2276 37.3229 24.1225 37.4649 24.0814 37.6301C24.0402 37.7952 24.0663 37.9699 24.154 38.1158C24.4065 38.5352 24.7894 38.8603 25.2442 39.0414C25.6991 39.2225 26.2007 39.2497 26.6724 39.1187C27.1441 38.9877 27.5598 38.7058 27.8561 38.3161C28.1524 37.9264 28.3129 37.4503 28.313 36.9608V35.9748C29.0861 35.8774 29.7972 35.5012 30.3127 34.9168C30.8282 34.3324 31.1128 33.58 31.113 32.8008V12.8008C31.113 11.9521 30.7758 11.1382 30.1757 10.538C29.5756 9.93792 28.7617 9.60078 27.913 9.60078ZM19.3569 20.9603V31.5203C19.3569 31.69 19.4244 31.8528 19.5444 31.9729C19.6644 32.0929 19.8272 32.1603 19.9969 32.1603C20.1667 32.1603 20.3295 32.0929 20.4495 31.9729C20.5695 31.8528 20.6369 31.69 20.6369 31.5203V20.9603C20.6369 20.7906 20.5695 20.6278 20.4495 20.5078C20.3295 20.3877 20.1667 20.3203 19.9969 20.3203C19.8272 20.3203 19.6644 20.3877 19.5444 20.5078C19.4244 20.6278 19.3569 20.7906 19.3569 20.9603ZM15.4925 30.6142C15.3725 30.7342 15.2097 30.8016 15.04 30.8016C14.8702 30.8016 14.7074 30.7342 14.5874 30.6142C14.4674 30.4942 14.4 30.3314 14.4 30.1617V22.3217C14.4 22.1519 14.4674 21.9891 14.5874 21.8691C14.7074 21.7491 14.8702 21.6816 15.04 21.6816C15.2097 21.6816 15.3725 21.7491 15.4925 21.8691C15.6125 21.9891 15.68 22.1519 15.68 22.3217V30.1617C15.68 30.3314 15.6125 30.4942 15.4925 30.6142ZM24.317 22.3217V30.1617C24.317 30.2457 24.3336 30.3289 24.3657 30.4066C24.3979 30.4842 24.445 30.5548 24.5045 30.6142C24.5639 30.6736 24.6344 30.7208 24.7121 30.7529C24.7897 30.7851 24.873 30.8016 24.957 30.8016C25.0411 30.8016 25.1243 30.7851 25.2019 30.7529C25.2796 30.7208 25.3501 30.6736 25.4096 30.6142C25.469 30.5548 25.5161 30.4842 25.5483 30.4066C25.5805 30.3289 25.597 30.2457 25.597 30.1617V22.3217C25.597 22.2376 25.5805 22.1544 25.5483 22.0767C25.5161 21.9991 25.469 21.9285 25.4096 21.8691C25.3501 21.8097 25.2796 21.7625 25.2019 21.7303C25.1243 21.6982 25.0411 21.6816 24.957 21.6816C24.873 21.6816 24.7897 21.6982 24.7121 21.7303C24.6344 21.7625 24.5639 21.8097 24.5045 21.8691C24.445 21.9285 24.3979 21.9991 24.3657 22.0767C24.3336 22.1544 24.317 22.2376 24.317 22.3217ZM23.68 18.5614H16.32C15.8108 18.5611 15.3225 18.3588 14.9623 17.9988C14.6021 17.6388 14.3995 17.1506 14.399 16.6414V15.3614C14.399 15.1917 14.4664 15.0289 14.5864 14.9089C14.7065 14.7888 14.8692 14.7214 15.039 14.7214C15.2087 14.7214 15.3715 14.7888 15.4915 14.9089C15.6116 15.0289 15.679 15.1917 15.679 15.3614V16.6414C15.6793 16.8111 15.7468 16.9737 15.8667 17.0937C15.9867 17.2136 16.1493 17.2811 16.319 17.2814H23.679C23.8486 17.2811 24.0113 17.2136 24.1312 17.0937C24.2512 16.9737 24.3187 16.8111 24.319 16.6414V15.3614C24.3187 15.1917 24.2512 15.0291 24.1312 14.9091C24.0113 14.7892 23.8486 14.7217 23.679 14.7214H17.437C17.2672 14.7214 17.1045 14.654 16.9844 14.534C16.8644 14.4139 16.797 14.2511 16.797 14.0814C16.797 13.9117 16.8644 13.7489 16.9844 13.6289C17.1045 13.5088 17.2672 13.4414 17.437 13.4414H23.68C24.189 13.4419 24.6771 13.6444 25.037 14.0043C25.397 14.3643 25.5995 14.8524 25.6 15.3614V16.6414C25.5995 17.1505 25.397 17.6385 25.037 17.9985C24.6771 18.3584 24.189 18.5609 23.68 18.5614Z" fill="#4465F0"/>
</svg>
