<svg width="40" height="40" viewBox="0 0 40 40" fill="none" xmlns="http://www.w3.org/2000/svg">
<path opacity="0.15" fill-rule="evenodd" clip-rule="evenodd" d="M13.4343 3.06801C13.398 3.05957 13.3608 3.05436 13.3231 3.05258C12.0842 3.02339 10.8459 3.10628 9.62323 3.2999C9.32686 3.34635 9.0314 3.39931 8.73706 3.45878C8.45367 3.51988 8.19979 3.67631 8.01781 3.90197C7.83582 4.12763 7.73673 4.40888 7.73706 4.69878V5.28599C6.64419 5.60002 5.70983 6.02399 5.04907 6.55221V6.55273H4.02006C3.51614 6.55273 3.03287 6.75291 2.67655 7.10923C2.32023 7.46555 2.12006 7.94882 2.12006 8.45273V33.7857C2.12006 34.2896 2.32023 34.7729 2.67655 35.1292C3.03287 35.4856 3.51614 35.6857 4.02006 35.6857H4.02203H18.1111C18.1109 35.8521 18.1436 36.017 18.2072 36.1707C18.2709 36.3245 18.3642 36.4642 18.4819 36.5819C18.5995 36.6996 18.7393 36.7929 18.893 36.8566C19.0468 36.9202 19.2116 36.9529 19.3781 36.9527H21.5951C21.7615 36.9529 21.9263 36.9202 22.0801 36.8566C22.2339 36.7929 22.3736 36.6996 22.4913 36.5819C22.6089 36.4642 22.7023 36.3245 22.7659 36.1707C22.8295 36.017 22.8622 35.8521 22.8621 35.6857H36.9531C37.457 35.6857 37.9402 35.4856 38.2966 35.1292C38.6529 34.7729 38.8531 34.2896 38.8531 33.7857V8.45273C38.8531 7.94882 38.6529 7.46555 38.2966 7.10923C37.9889 6.80157 37.5866 6.61031 37.1581 6.56382C37.1235 6.55783 37.0885 6.5541 37.0531 6.55273H36.9531H35.9223C35.8836 6.52188 35.844 6.49138 35.8036 6.46123C35.7945 6.4531 35.785 6.44542 35.7751 6.43821C32.5551 4.07921 23.7311 3.93521 20.4871 6.55221C19.1737 5.49294 16.9476 4.8861 14.5491 4.69513V4.31879C14.547 3.98629 14.4144 3.66791 14.1798 3.43224C13.9783 3.22973 13.7153 3.10221 13.4343 3.06801Z" fill="#4465F0"/>
<path fill-rule="evenodd" clip-rule="evenodd" d="M38.8541 8.42957C38.6862 8.42957 38.5252 8.49626 38.4065 8.61497C38.2878 8.73368 38.2211 8.89469 38.2211 9.06257V33.7866C38.2208 34.1225 38.0872 34.4446 37.8497 34.6822C37.6121 34.9197 37.29 35.0533 36.9541 35.0536H22.8621C22.6942 35.0536 22.5332 35.1203 22.4145 35.239C22.2957 35.3577 22.2291 35.5187 22.2291 35.6866C22.2288 35.8544 22.162 36.0152 22.0434 36.1339C21.9247 36.2525 21.7639 36.3193 21.5961 36.3196H19.3791C19.2113 36.3193 19.0504 36.2525 18.9318 36.1339C18.8131 36.0152 18.7463 35.8544 18.7461 35.6866C18.7461 35.5187 18.6794 35.3577 18.5607 35.239C18.4419 35.1203 18.2809 35.0536 18.1131 35.0536H4.02006C3.68411 35.0533 3.362 34.9197 3.12445 34.6822C2.8869 34.4446 2.75333 34.1225 2.75306 33.7866V8.45257C2.75333 8.11662 2.8869 7.79451 3.12445 7.55696C3.362 7.31941 3.68411 7.18583 4.02006 7.18557H4.42006V31.1736C4.42006 31.6775 4.62024 32.1608 4.97656 32.5171C5.33288 32.8734 5.81615 33.0736 6.32006 33.0736H34.6581C35.162 33.0736 35.6452 32.8734 36.0016 32.5171C36.3579 32.1608 36.5581 31.6775 36.5581 31.1736V6.55257C36.5581 6.45748 36.5367 6.36361 36.4955 6.27791C36.4543 6.19222 36.3944 6.1169 36.3201 6.05757C33.1041 3.48657 24.2791 3.23357 20.4881 5.76757C19.8519 5.35368 19.1631 5.02709 18.4401 4.79657C18.3603 4.76625 18.2752 4.75237 18.1899 4.75577C18.1047 4.75917 18.021 4.77978 17.9439 4.81635C17.8668 4.85292 17.7979 4.90471 17.7413 4.96859C17.6847 5.03247 17.6416 5.10714 17.6146 5.1881C17.5877 5.26905 17.5773 5.35463 17.5843 5.43969C17.5912 5.52474 17.6152 5.60752 17.655 5.68304C17.6947 5.75856 17.7493 5.82526 17.8155 5.87914C17.8817 5.93302 17.9581 5.97297 18.0401 5.99657C18.7796 6.22248 19.4735 6.5769 20.0901 7.04357C20.2025 7.1333 20.3422 7.18217 20.4861 7.18217C20.63 7.18217 20.7696 7.1333 20.8821 7.04357C23.9181 4.63857 32.2081 4.74857 35.2921 6.86657V28.5196C31.7921 26.7196 24.8321 26.5696 21.1211 28.5106V9.85957C21.1211 9.69156 21.0543 9.53042 20.9355 9.41162C20.8167 9.29281 20.6556 9.22607 20.4876 9.22607C20.3195 9.22607 20.1584 9.29281 20.0396 9.41162C19.9208 9.53042 19.8541 9.69156 19.8541 9.85957V28.5086C16.9271 26.9666 12.0081 26.7796 8.44206 27.5726C8.3609 27.5906 8.2841 27.6245 8.21603 27.6722C8.14796 27.72 8.08996 27.7807 8.04534 27.8508C8.00072 27.921 7.97036 27.9992 7.95598 28.0811C7.94161 28.163 7.9435 28.2469 7.96156 28.3281C7.97962 28.4092 8.01348 28.486 8.06122 28.5541C8.10896 28.6222 8.16964 28.6802 8.2398 28.7248C8.30995 28.7694 8.38821 28.7998 8.4701 28.8141C8.55198 28.8285 8.6359 28.8266 8.71706 28.8086C12.3721 27.9956 17.7601 28.2816 20.0901 30.1626C20.2031 30.2545 20.3444 30.3047 20.4901 30.3047C20.6358 30.3047 20.777 30.2545 20.8901 30.1626C23.8411 27.7806 32.1831 27.8506 35.2961 29.9896V31.1746C35.2958 31.3424 35.229 31.5032 35.1104 31.6219C34.9917 31.7405 34.8309 31.8073 34.6631 31.8076H6.31606C6.14826 31.8073 5.98741 31.7405 5.86875 31.6219C5.7501 31.5032 5.68333 31.3424 5.68306 31.1746V6.87457C6.12798 6.58049 6.60635 6.34047 7.10806 6.15957V14.4926C7.10829 14.7754 7.18423 15.0529 7.32798 15.2965C7.47173 15.54 7.67805 15.7406 7.92552 15.8774C8.17299 16.0143 8.45259 16.0824 8.73527 16.0747C9.01796 16.067 9.29342 15.9837 9.53306 15.8336L11.1451 14.8216L12.7571 15.8336C12.9968 15.985 13.2728 16.0693 13.5562 16.0777C13.8396 16.0861 14.1201 16.0183 14.3684 15.8813C14.6167 15.7442 14.8236 15.5431 14.9676 15.2988C15.1116 15.0546 15.1874 14.7761 15.1871 14.4926V4.31757C15.1838 3.8205 14.9873 3.34421 14.639 2.98957C14.2907 2.63492 13.818 2.42977 13.3211 2.41757C12.3057 2.39499 11.2899 2.44244 10.2811 2.55957C10.1985 2.56935 10.1186 2.59531 10.046 2.63596C9.97345 2.67661 9.9096 2.73115 9.85811 2.79648C9.80662 2.86181 9.7685 2.93663 9.74593 3.01669C9.72336 3.09675 9.71678 3.18047 9.72656 3.26307C9.73634 3.34567 9.7623 3.42554 9.80295 3.49811C9.8436 3.57068 9.89814 3.63453 9.96347 3.68602C10.0288 3.73751 10.1036 3.77563 10.1837 3.7982C10.2637 3.82077 10.3475 3.82735 10.4301 3.81757C11.3795 3.70643 12.3354 3.66065 13.2911 3.68057C13.4578 3.68242 13.6171 3.75009 13.7341 3.86885C13.8512 3.9876 13.9166 4.14781 13.9161 4.31457V14.4926C13.9162 14.5492 13.9012 14.6049 13.8725 14.6537C13.8438 14.7025 13.8025 14.7427 13.7529 14.7701C13.7033 14.7975 13.6473 14.8111 13.5907 14.8094C13.534 14.8077 13.4789 14.7909 13.4311 14.7606L11.4871 13.5376C11.3861 13.4741 11.2693 13.4404 11.1501 13.4404C11.0308 13.4404 10.914 13.4741 10.8131 13.5376L8.86006 14.7596C8.81213 14.7895 8.75707 14.8061 8.70058 14.8076C8.64408 14.8092 8.58821 14.7955 8.53874 14.7682C8.48928 14.7409 8.44802 14.7008 8.41924 14.6522C8.39046 14.6035 8.37521 14.5481 8.37506 14.4916V5.22757C8.36643 5.13484 8.33748 5.04515 8.29027 4.96488C8.24306 4.88461 8.17874 4.81572 8.10189 4.76312C8.02504 4.71052 7.93755 4.6755 7.84563 4.66054C7.75371 4.64558 7.65962 4.65105 7.57006 4.67657C6.59489 4.93215 5.67058 5.35254 4.83706 5.91957H4.02006C3.34851 5.92037 2.70469 6.18749 2.22984 6.66235C1.75498 7.1372 1.48785 7.78102 1.48706 8.45257V33.7866C1.48785 34.4581 1.75498 35.1019 2.22984 35.5768C2.70469 36.0517 3.34851 36.3188 4.02006 36.3196H17.5871C17.718 36.69 17.9605 37.0108 18.2812 37.2377C18.602 37.4646 18.9852 37.5865 19.3781 37.5866H21.5951C21.9881 37.5867 22.3715 37.4649 22.6925 37.238C23.0134 37.0111 23.2561 36.6902 23.3871 36.3196H36.9541C37.6256 36.3188 38.2694 36.0517 38.7443 35.5768C39.2191 35.1019 39.4863 34.4581 39.4871 33.7866V9.05957C39.4871 8.89169 39.4204 8.73068 39.3017 8.61197C39.1829 8.49326 39.0219 8.42657 38.8541 8.42657V8.42957ZM24.7161 9.9758C26.4786 9.68432 28.2713 9.62046 30.0501 9.78579C30.1329 9.79348 30.2164 9.78477 30.2958 9.76018C30.3752 9.73559 30.4491 9.69561 30.513 9.64249C30.577 9.58938 30.6299 9.52417 30.6687 9.45062C30.7075 9.37706 30.7314 9.29659 30.7391 9.21379C30.7468 9.131 30.7381 9.04749 30.7135 8.96806C30.6889 8.88862 30.6489 8.81481 30.5958 8.75083C30.5427 8.68685 30.4775 8.63396 30.4039 8.59517C30.3303 8.55639 30.2499 8.53247 30.1671 8.52479C28.3134 8.35065 26.4451 8.41585 24.6081 8.71879C24.4515 8.74547 24.3107 8.83 24.2136 8.95562C24.1165 9.08124 24.0702 9.23878 24.0837 9.39698C24.0973 9.55519 24.1699 9.7025 24.287 9.80971C24.4042 9.91692 24.5573 9.97621 24.7161 9.9758ZM24.1822 14.4328C24.1376 14.3625 24.1073 14.2842 24.0931 14.2022C24.0652 14.0372 24.1039 13.8678 24.2006 13.7312C24.2973 13.5946 24.4442 13.5018 24.6091 13.4732C27.2978 13.0257 30.0473 13.0974 32.709 13.6842C32.8726 13.7225 33.0141 13.8243 33.1027 13.967C33.1912 14.1097 33.2194 14.2817 33.1811 14.4452C33.1427 14.6087 33.041 14.7503 32.8983 14.8388C32.7556 14.9273 32.5836 14.9555 32.4201 14.9172C29.9247 14.3663 27.3469 14.2984 24.8261 14.7172C24.7441 14.7316 24.6601 14.7297 24.5789 14.7116C24.4977 14.6935 24.4209 14.6595 24.3528 14.6117C24.2847 14.5638 24.2267 14.5031 24.1822 14.4328ZM24.0931 18.9522C24.1073 19.0342 24.1376 19.1125 24.1822 19.1828C24.2267 19.2531 24.2847 19.3138 24.3528 19.3617C24.4209 19.4095 24.4977 19.4435 24.5789 19.4616C24.6601 19.4797 24.7441 19.4816 24.8261 19.4672C27.3469 19.0484 29.9247 19.1163 32.4201 19.6672C32.501 19.6862 32.5849 19.689 32.667 19.6756C32.7491 19.6621 32.8277 19.6327 32.8983 19.5888C32.969 19.545 33.0303 19.4877 33.0788 19.4201C33.1273 19.3526 33.1621 19.2762 33.1811 19.1952C33.2 19.1142 33.2029 19.0303 33.1894 18.9483C33.176 18.8662 33.1465 18.7876 33.1027 18.717C33.0588 18.6463 33.0015 18.585 32.934 18.5364C32.8665 18.4879 32.79 18.4532 32.709 18.4342C30.0473 17.8474 27.2978 17.7757 24.6091 18.2232C24.4442 18.2518 24.2973 18.3446 24.2006 18.4812C24.1039 18.6178 24.0652 18.7872 24.0931 18.9522ZM24.1822 23.9328C24.1376 23.8625 24.1073 23.7842 24.0931 23.7022C24.0652 23.5372 24.1039 23.3678 24.2006 23.2312C24.2973 23.0946 24.4442 23.0018 24.6091 22.9732C27.2978 22.5257 30.0473 22.5973 32.709 23.1842C32.79 23.2032 32.8665 23.2379 32.934 23.2864C33.0015 23.335 33.0588 23.3963 33.1027 23.467C33.1465 23.5376 33.176 23.6163 33.1894 23.6983C33.2029 23.7804 33.2 23.8643 33.1811 23.9452C33.1621 24.0262 33.1273 24.1026 33.0788 24.1701C33.0303 24.2377 32.969 24.295 32.8983 24.3388C32.8277 24.3826 32.7491 24.4121 32.667 24.4256C32.5849 24.439 32.501 24.4362 32.4201 24.4172C29.9247 23.8663 27.3469 23.7984 24.8261 24.2172C24.7441 24.2316 24.6601 24.2297 24.5789 24.2116C24.4977 24.1934 24.4209 24.1595 24.3528 24.1117C24.2847 24.0638 24.2267 24.0031 24.1822 23.9328ZM8.26508 18.4287C8.18412 18.4477 8.10769 18.4824 8.04015 18.5309C7.97262 18.5794 7.9153 18.6408 7.87147 18.7115C7.82764 18.7821 7.79816 18.8607 7.78471 18.9428C7.77126 19.0248 7.7741 19.1088 7.79308 19.1897C7.81205 19.2707 7.84679 19.3471 7.8953 19.4146C7.94382 19.4822 8.00516 19.5395 8.07582 19.5833C8.14649 19.6271 8.22509 19.6566 8.30715 19.6701C8.38921 19.6835 8.47312 19.6807 8.55408 19.6617C11.0494 19.1108 13.6272 19.0429 16.1481 19.4617C16.23 19.476 16.314 19.4739 16.3951 19.4557C16.4763 19.4375 16.5531 19.4035 16.6211 19.3557C16.6891 19.3078 16.747 19.247 16.7916 19.1767C16.8361 19.1065 16.8663 19.0282 16.8806 18.9462C16.8948 18.8643 16.8928 18.7803 16.8746 18.6992C16.8564 18.618 16.8224 18.5412 16.7745 18.4732C16.7267 18.4052 16.6659 18.3473 16.5956 18.3027C16.5254 18.2582 16.447 18.228 16.3651 18.2137C13.6761 17.7675 10.9266 17.8405 8.26508 18.4287ZM10.8661 22.7692C12.7004 22.602 14.5487 22.6692 16.3661 22.9692H16.3621C16.5276 22.998 16.6748 23.0913 16.7715 23.2287C16.8682 23.366 16.9063 23.5362 16.8776 23.7017C16.8488 23.8672 16.7554 24.0145 16.6181 24.1111C16.4807 24.2078 16.3106 24.246 16.1451 24.2172C14.4383 23.9363 12.7026 23.8738 10.9801 24.0312C10.8972 24.0387 10.8137 24.0298 10.7343 24.005C10.6548 23.9802 10.5811 23.94 10.5172 23.8867C10.4533 23.8334 10.4005 23.768 10.3619 23.6943C10.3233 23.6206 10.2995 23.54 10.2921 23.4572C10.2846 23.3743 10.2935 23.2908 10.3183 23.2114C10.3431 23.1319 10.3833 23.0582 10.4366 22.9943C10.4899 22.9304 10.5552 22.8776 10.6289 22.839C10.7026 22.8004 10.7832 22.7767 10.8661 22.7692Z" fill="#4465F0"/>
</svg>
