<svg width="40" height="40" viewBox="0 0 40 40" fill="none" xmlns="http://www.w3.org/2000/svg">
<path opacity="0.15" fill-rule="evenodd" clip-rule="evenodd" d="M32.7469 8.28345C32.7469 8.17804 32.7379 8.07354 32.7202 7.97102C32.6976 7.83663 32.66 7.70486 32.6081 7.57816C32.5162 7.35402 32.3811 7.15018 32.2104 6.97829C32.0397 6.80639 31.8368 6.66981 31.6133 6.57635C31.3898 6.48289 31.1501 6.43438 30.9079 6.4336H21.8179C21.7889 6.43351 21.76 6.43548 21.7314 6.43945H4.85889C4.36983 6.43945 3.9008 6.63373 3.55499 6.97955C3.20917 7.32537 3.01489 7.7944 3.01489 8.28345V28.1045L3.01591 28.1055H3.01489L6.47192 31.5625V33.0462V33.0468V35.9413C6.47192 36.4303 6.6662 36.8993 7.01202 37.2451C7.35783 37.591 7.82687 37.7852 8.31593 37.7852H34.3599C34.849 37.7852 35.318 37.591 35.6638 37.2451C36.0096 36.8993 36.2039 36.4303 36.2039 35.9413V12.1253C36.2039 11.6362 36.0096 11.1672 35.6638 10.8213C35.318 10.4755 34.849 10.2812 34.3599 10.2812H33.3619H32.7469H32.7469V8.28345Z" fill="#4465F0"/>
<path fill-rule="evenodd" clip-rule="evenodd" d="M34.3599 9.66711H33.3599V8.28411C33.3594 7.63193 33.1 7.00663 32.6387 6.54557C32.1775 6.0845 31.5521 5.82537 30.8999 5.82511H18.0719V4.78811C18.0719 3.94247 17.736 3.13146 17.138 2.5335C16.5401 1.93554 15.729 1.59961 14.8834 1.59961C14.0378 1.59961 13.2268 1.93554 12.6288 2.5335C12.0308 3.13146 11.6949 3.94247 11.6949 4.78811V5.82511H4.8579C4.20607 5.8259 3.58118 6.08526 3.12036 6.54627C2.65954 7.00728 2.40043 7.63228 2.3999 8.28411V24.3381C2.40631 24.4968 2.47385 24.6469 2.58839 24.7569C2.70293 24.8669 2.85559 24.9283 3.0144 24.9283C3.17322 24.9283 3.32588 24.8669 3.44042 24.7569C3.55496 24.6469 3.6225 24.4968 3.6289 24.3381V8.28411C3.62943 7.95832 3.75908 7.64603 3.98945 7.41566C4.21982 7.18529 4.53211 7.05564 4.8579 7.05511H11.6999V12.3001C11.6935 12.6043 11.748 12.9066 11.86 13.1895C11.9719 13.4724 12.1393 13.73 12.3521 13.9474C12.565 14.1647 12.8191 14.3374 13.0996 14.4553C13.38 14.5732 13.6812 14.6339 13.9854 14.6339C14.2896 14.6339 14.5908 14.5732 14.8712 14.4553C15.1517 14.3374 15.4058 14.1647 15.6187 13.9474C15.8315 13.73 15.9989 13.4724 16.1109 13.1895C16.2229 12.9066 16.2773 12.6043 16.2709 12.3001V10.4001C16.2716 10.1528 16.2233 9.90789 16.1287 9.67942C16.0341 9.45096 15.8952 9.24352 15.7199 9.06911C15.6031 8.96161 15.4493 8.90342 15.2907 8.90669C15.132 8.90997 14.9807 8.97446 14.8685 9.08669C14.7563 9.19892 14.6918 9.35019 14.6885 9.50886C14.6852 9.66754 14.7434 9.82135 14.8509 9.93811C14.9117 9.99867 14.9599 10.0707 14.9927 10.15C15.0255 10.2293 15.0422 10.3143 15.0419 10.4001V12.3001C15.0419 12.5803 14.9306 12.849 14.7325 13.0472C14.5343 13.2453 14.2656 13.3566 13.9854 13.3566C13.7052 13.3566 13.4365 13.2453 13.2383 13.0472C13.0402 12.849 12.9289 12.5803 12.9289 12.3001V4.78811C12.9289 4.26855 13.1353 3.77027 13.5027 3.40289C13.8701 3.0355 14.3683 2.82911 14.8879 2.82911C15.4075 2.82911 15.9057 3.0355 16.2731 3.40289C16.6405 3.77027 16.8469 4.26855 16.8469 4.78811V5.82511H15.5719C15.4891 5.82177 15.4065 5.83519 15.329 5.86457C15.2516 5.89394 15.1808 5.93867 15.1211 5.99606C15.0613 6.05345 15.0138 6.12232 14.9813 6.19854C14.9488 6.27476 14.9321 6.35676 14.9321 6.43961C14.9321 6.52246 14.9488 6.60446 14.9813 6.68068C15.0138 6.7569 15.0613 6.82577 15.1211 6.88316C15.1808 6.94055 15.2516 6.98528 15.329 7.01465C15.4065 7.04403 15.4891 7.05745 15.5719 7.05411H30.8999C31.2257 7.05464 31.538 7.18429 31.7684 7.41466C31.9987 7.64503 32.1284 7.95732 32.1289 8.28311V32.1001C32.1284 32.4259 31.9987 32.7382 31.7684 32.9686C31.538 33.1989 31.2257 33.3286 30.8999 33.3291H9.1079L4.4999 28.7201H7.0109C7.33669 28.7206 7.64898 28.8503 7.87935 29.0807C8.10972 29.311 8.23937 29.6233 8.2399 29.9491C8.23656 30.0319 8.24998 30.1145 8.27936 30.192C8.30874 30.2694 8.35346 30.3402 8.41085 30.3999C8.46824 30.4597 8.53712 30.5072 8.61334 30.5397C8.68956 30.5722 8.77155 30.5889 8.8544 30.5889C8.93725 30.5889 9.01925 30.5722 9.09547 30.5397C9.17169 30.5072 9.24056 30.4597 9.29795 30.3999C9.35534 30.3402 9.40007 30.2694 9.42945 30.192C9.45882 30.1145 9.47224 30.0319 9.4689 29.9491C9.46811 29.2975 9.20889 28.6727 8.74809 28.2119C8.2873 27.7511 7.66256 27.4919 7.0109 27.4911C6.02787 27.4911 5.28192 27.49 4.71396 27.4892H4.71386H4.71375C3.0189 27.4868 2.90927 27.4866 2.81447 27.524C2.80793 27.5266 2.80146 27.5294 2.79455 27.5323L2.7945 27.5324L2.7809 27.5381C2.69939 27.5718 2.62609 27.6226 2.56598 27.6871C2.50587 27.7516 2.46036 27.8284 2.43256 27.9121C2.40476 27.9957 2.39531 28.0844 2.40486 28.1721C2.41441 28.2598 2.44273 28.3444 2.4879 28.4201C2.49151 28.4262 2.49362 28.4306 2.49557 28.4346L2.49558 28.4346L2.49558 28.4346L2.49676 28.4371C2.5203 28.4853 2.56047 28.5254 4.99247 30.9551L4.9925 30.9551C5.82386 31.7856 6.9347 32.8954 8.4199 34.3801C8.47704 34.4372 8.54486 34.4825 8.6195 34.5134C8.69414 34.5443 8.77413 34.5601 8.8549 34.5601H30.8999C31.5524 34.5601 32.1782 34.301 32.6397 33.8397C33.1012 33.3783 33.3606 32.7526 33.3609 32.1001V10.9001H34.3609C34.6867 10.9006 34.999 11.0303 35.2294 11.2607C35.4597 11.491 35.5894 11.8033 35.5899 12.1291V35.9421C35.5894 36.2679 35.4597 36.5802 35.2294 36.8106C34.999 37.0409 34.6867 37.1706 34.3609 37.1711H8.3149C8.15345 37.1715 7.99351 37.1399 7.84435 37.0781C7.69518 37.0164 7.55975 36.9256 7.4459 36.8111C7.32914 36.7036 7.17534 36.6454 7.01666 36.6487C6.85798 36.652 6.70671 36.7165 6.59448 36.8287C6.48226 36.9409 6.41776 37.0922 6.41448 37.2509C6.41121 37.4095 6.4694 37.5633 6.5769 37.6801C6.80461 37.9091 7.07546 38.0906 7.37379 38.2142C7.67211 38.3378 7.99199 38.401 8.3149 38.4001H34.3599C35.0116 38.3993 35.6363 38.1401 36.0971 37.6793C36.5579 37.2185 36.8171 36.5938 36.8179 35.9421V12.1251C36.8171 11.4735 36.5579 10.8487 36.0971 10.3879C35.6363 9.92712 35.0116 9.6679 34.3599 9.66711ZM8.85387 20.6528H26.9849C27.1436 20.6464 27.2936 20.5789 27.4036 20.4643C27.5136 20.3498 27.5751 20.1971 27.5751 20.0383C27.5751 19.8795 27.5136 19.7269 27.4036 19.6123C27.2936 19.4978 27.1436 19.4302 26.9849 19.4238H8.85387C8.69519 19.4302 8.54513 19.4978 8.43512 19.6123C8.32511 19.7269 8.26367 19.8795 8.26367 20.0383C8.26367 20.1971 8.32511 20.3498 8.43512 20.4643C8.54513 20.5789 8.69519 20.6464 8.85387 20.6528ZM27.4026 14.3184C27.2926 14.4329 27.1426 14.5004 26.9839 14.5068H17.9609C17.8781 14.5102 17.7955 14.4968 17.718 14.4674C17.6406 14.438 17.5698 14.3933 17.5101 14.3359C17.4503 14.2785 17.4028 14.2096 17.3703 14.1334C17.3378 14.0572 17.3211 13.9752 17.3211 13.8923C17.3211 13.8095 17.3378 13.7275 17.3703 13.6513C17.4028 13.5751 17.4503 13.5062 17.5101 13.4488C17.5698 13.3914 17.6406 13.3467 17.718 13.3173C17.7955 13.2879 17.8781 13.2745 17.9609 13.2778H26.9839C27.1426 13.2842 27.2926 13.3518 27.4026 13.4663C27.5127 13.5809 27.5741 13.7335 27.5741 13.8923C27.5741 14.0512 27.5127 14.2038 27.4026 14.3184ZM8.8539 14.5068H9.94691C10.0297 14.5102 10.1123 14.4968 10.1898 14.4674C10.2672 14.438 10.338 14.3933 10.3977 14.3359C10.4575 14.2785 10.505 14.2096 10.5375 14.1334C10.57 14.0572 10.5867 13.9752 10.5867 13.8923C10.5867 13.8095 10.57 13.7275 10.5375 13.6513C10.505 13.5751 10.4575 13.5062 10.3977 13.4488C10.338 13.3914 10.2672 13.3467 10.1898 13.3173C10.1123 13.2879 10.0297 13.2745 9.94691 13.2778H8.8539C8.77112 13.2745 8.68852 13.2879 8.61105 13.3173C8.53359 13.3467 8.46285 13.3914 8.4031 13.4488C8.34335 13.5062 8.2958 13.5751 8.26333 13.6513C8.23085 13.7275 8.21411 13.8095 8.21411 13.8923C8.21411 13.9752 8.23085 14.0572 8.26333 14.1334C8.2958 14.2096 8.34335 14.2785 8.4031 14.3359C8.46285 14.3933 8.53359 14.438 8.61105 14.4674C8.68852 14.4968 8.77112 14.5102 8.8539 14.5068ZM11.1589 25.5708H26.9849C27.1436 25.5772 27.2936 25.6447 27.4037 25.7593C27.5137 25.8738 27.5751 26.0265 27.5751 26.1853C27.5751 26.3441 27.5137 26.4968 27.4037 26.6113C27.2936 26.7259 27.1436 26.7934 26.9849 26.7998H11.1589C11.0761 26.8032 10.9935 26.7897 10.916 26.7604C10.8386 26.731 10.7678 26.6862 10.7081 26.6289C10.6483 26.5715 10.6008 26.5026 10.5683 26.4264C10.5358 26.3502 10.5191 26.2682 10.5191 26.1853C10.5191 26.1025 10.5358 26.0205 10.5683 25.9443C10.6008 25.868 10.6483 25.7992 10.7081 25.7418C10.7678 25.6844 10.8386 25.6396 10.916 25.6103C10.9935 25.5809 11.0761 25.5675 11.1589 25.5708Z" fill="#4465F0"/>
</svg>
