<svg width="41" height="40" viewBox="0 0 41 40" fill="none" xmlns="http://www.w3.org/2000/svg">
<path opacity="0.15" d="M31.082 33.585C30.8359 33.5383 30.594 33.4731 30.3574 33.3906L30.3301 33.3818L30.2949 33.3687C29.3025 33.0103 28.4449 32.3553 27.8379 31.4922C27.2308 30.6291 26.9041 29.6001 26.9023 28.5449H24.4922C23.9251 28.5449 23.3816 28.3194 22.9805 27.9185C22.5794 27.5175 22.3538 26.9739 22.3535 26.4067V19.4336C22.3535 19.1527 22.4081 18.8747 22.5156 18.6152C22.6231 18.3558 22.7818 18.1199 22.9805 17.9214C23.1791 17.7228 23.4143 17.5654 23.6738 17.458C23.9333 17.3506 24.2113 17.2958 24.4922 17.2959H28.4648L31.207 8.70996C31.3456 8.27879 31.6168 7.90257 31.9824 7.63525C32.348 7.36794 32.7893 7.22298 33.2422 7.22168H39.668V28.5439H37.1602C37.1601 29.2979 36.9927 30.0423 36.6719 30.7246C36.351 31.4069 35.8853 32.0102 35.3047 32.4912C34.7241 32.9722 34.0445 33.3195 33.3145 33.5078C32.5844 33.6961 31.8209 33.7207 31.0801 33.5806L31.082 33.585ZM7.66211 33.585L7.57422 33.5669H7.56836L7.50781 33.5527C6.36897 33.3045 5.34843 32.6743 4.61719 31.7666C3.88595 30.8589 3.48651 29.7286 3.48633 28.563V28.5459C3.48678 28.3226 3.50111 28.0995 3.5293 27.8779L0.996094 27.5366V6.00195L1.04688 6.00879L10.2461 7.3418C10.6939 7.4027 11.1109 7.60365 11.4375 7.91602C11.7641 8.22839 11.9837 8.63593 12.0645 9.08057L13.627 17.9287L17.9648 19.856C18.3456 20.025 18.6692 20.3014 18.8945 20.6519C19.1199 21.0023 19.2366 21.411 19.2324 21.8276C19.2322 21.9156 19.2266 22.0036 19.2148 22.0908L19.0371 23.4077L18.4551 27.7407C18.4551 27.7737 18.4455 27.8068 18.4395 27.8408C18.3396 28.3794 18.0354 28.8589 17.5918 29.1802C17.1482 29.5015 16.5995 29.64 16.0566 29.5669L13.668 29.2446C13.5015 30.471 12.8952 31.5956 11.9629 32.4097C11.0306 33.2237 9.83532 33.6722 8.59766 33.6719C8.28406 33.6719 7.97056 33.6435 7.66211 33.5869V33.585ZM16.1621 14.1108L18.6016 13.5688L19.1328 11.3057L21.332 11.9556L23.4238 10.5557L24.7246 11.9556L26.6133 12.2236L26.248 14.4238C22.9807 14.7148 19.7483 15.3173 16.5957 16.2236L16.1621 14.1108Z" fill="#4465F0"/>
<path d="M18.4202 18.7107L14.4146 16.9277L12.9117 8.42768C12.8103 7.84274 12.5251 7.30549 12.0976 6.89414C11.6701 6.48279 11.1226 6.21883 10.5349 6.14069L1.29549 4.80769C1.2081 4.79328 1.11872 4.79647 1.03258 4.81707C0.946432 4.83766 0.865257 4.87526 0.793796 4.92765C0.722336 4.98003 0.662027 5.04616 0.616396 5.12217C0.570766 5.19818 0.540731 5.28254 0.528048 5.37031C0.515365 5.45808 0.520289 5.5475 0.542532 5.63334C0.564775 5.71918 0.60389 5.79973 0.657589 5.87025C0.711289 5.94077 0.778494 5.99987 0.855273 6.04407C0.932052 6.08827 1.01686 6.1167 1.10475 6.12769L10.3512 7.46569C10.6593 7.50676 10.9463 7.64533 11.1704 7.86119C11.3944 8.07704 11.5437 8.3589 11.5965 8.66568L12.9876 16.5287L5.64058 14.8787V8.97068C5.64405 8.88099 5.6294 8.79151 5.59752 8.70761C5.56563 8.62372 5.51716 8.54713 5.45501 8.48244C5.39286 8.41775 5.31831 8.36629 5.23583 8.33113C5.15335 8.29598 5.06463 8.27787 4.97498 8.27787C4.88534 8.27787 4.79662 8.29598 4.71413 8.33113C4.63165 8.36629 4.5571 8.41775 4.49495 8.48244C4.4328 8.54713 4.38434 8.62372 4.35245 8.70761C4.32056 8.79151 4.30592 8.88099 4.30939 8.97068V14.5807L1.34542 13.9167C1.25835 13.8923 1.16723 13.8859 1.07763 13.898C0.988018 13.91 0.901793 13.9402 0.824202 13.9866C0.746612 14.0331 0.67928 14.0949 0.626309 14.1683C0.573337 14.2416 0.535835 14.325 0.516086 14.4134C0.496337 14.5017 0.494755 14.5932 0.511437 14.6821C0.528118 14.7711 0.562713 14.8558 0.613115 14.9309C0.663518 15.0061 0.728672 15.0702 0.804608 15.1193C0.880545 15.1684 0.965675 15.2016 1.05481 15.2167L13.6077 18.0287L17.8809 19.9287C18.1696 20.0583 18.4089 20.2776 18.5632 20.5541C18.7175 20.8306 18.7788 21.1496 18.7378 21.4637L17.9768 27.1157C17.9413 27.3871 17.8302 27.643 17.6563 27.8542C17.4823 28.0653 17.2525 28.2232 16.9931 28.3097C16.8325 28.3713 16.7019 28.4927 16.6287 28.6485C16.5555 28.8044 16.5452 28.9825 16.6002 29.1457C16.6552 29.3089 16.7711 29.4445 16.9236 29.5241C17.0761 29.6037 17.2535 29.6211 17.4186 29.5727C17.9138 29.4077 18.3526 29.1065 18.6848 28.7035C19.017 28.3004 19.2292 27.8119 19.297 27.2937L20.057 21.6407C20.1349 21.041 20.0178 20.4321 19.723 19.9044C19.4281 19.3766 18.9713 18.958 18.4202 18.7107Z" fill="#2E58FF"/>
<path d="M8.7923 22.248C7.51035 22.2499 6.26536 22.6783 5.25305 23.4659C4.24074 24.2535 3.51851 25.3556 3.19991 26.5991L1.28851 26.3411C1.20015 26.3255 1.10957 26.328 1.0222 26.3484C0.934825 26.3688 0.852466 26.4066 0.780058 26.4597C0.70765 26.5127 0.646687 26.5798 0.600825 26.657C0.554963 26.7342 0.525148 26.8199 0.513168 26.9089C0.501188 26.998 0.507291 27.0885 0.53111 27.1751C0.554928 27.2617 0.595973 27.3426 0.65178 27.4129C0.707587 27.4833 0.777007 27.5416 0.855875 27.5844C0.934743 27.6272 1.02143 27.6536 1.11075 27.662L3.02415 27.92C3.00313 29.0671 3.32362 30.1945 3.94478 31.1586C4.56595 32.1227 5.45966 32.8797 6.51205 33.3333C7.56444 33.7869 8.72786 33.9165 9.85408 33.7056C10.9803 33.4947 12.0183 32.9528 12.8359 32.149C13.6534 31.3452 14.2135 30.3159 14.4447 29.1922C14.676 28.0685 14.5679 26.9014 14.1343 25.8394C13.7007 24.7774 12.9612 23.8688 12.01 23.2292C11.0588 22.5896 9.93804 22.248 8.7923 22.248ZM8.7923 32.4741C7.91416 32.4741 7.05574 32.2133 6.32559 31.7248C5.59544 31.2362 5.02636 30.5419 4.69031 29.7295C4.35426 28.9171 4.26633 28.0231 4.43765 27.1607C4.60897 26.2982 5.03183 25.506 5.65277 24.8842C6.27371 24.2625 7.06484 23.839 7.92611 23.6675C8.78738 23.4959 9.68011 23.584 10.4914 23.9205C11.3027 24.257 11.9961 24.8268 12.484 25.558C12.9719 26.2891 13.2323 27.1487 13.2323 28.028C13.2309 29.2068 12.7627 30.3369 11.9304 31.1704C11.098 32.0039 9.96945 32.4727 8.7923 32.4741Z" fill="#2E58FF"/>
<path d="M8.79226 25.3672C8.40227 25.367 8.01703 25.4527 7.66384 25.6183C7.31065 25.7839 6.99816 26.0253 6.74854 26.3253C6.49892 26.6253 6.31829 26.9767 6.21944 27.3545C6.12059 27.7322 6.10596 28.1271 6.17657 28.5112C6.24719 28.8952 6.40132 29.259 6.62804 29.5768C6.85476 29.8945 7.14853 30.1584 7.48849 30.3498C7.82846 30.5411 8.2063 30.6552 8.59522 30.6839C8.98414 30.7127 9.37463 30.6554 9.73898 30.5162C9.8992 30.4498 10.0272 30.3234 10.0959 30.164C10.1646 30.0045 10.1684 29.8245 10.1066 29.6623C10.0449 29.5 9.92235 29.3683 9.76512 29.2951C9.60788 29.2219 9.42833 29.2129 9.26462 29.2702C9.01473 29.3655 8.74192 29.3829 8.48197 29.3201C8.22202 29.2574 7.98708 29.1174 7.80798 28.9186C7.62887 28.7198 7.51395 28.4715 7.47832 28.2061C7.44268 27.9407 7.48799 27.6708 7.60828 27.4316C7.72858 27.1925 7.91825 26.9954 8.15241 26.8661C8.38657 26.7369 8.65429 26.6815 8.92044 26.7073C9.18659 26.7331 9.43873 26.8388 9.64379 27.0107C9.84885 27.1825 9.99726 27.4124 10.0695 27.6702C10.0907 27.7571 10.1291 27.8389 10.1824 27.9107C10.2358 27.9824 10.3031 28.0427 10.3802 28.0879C10.4573 28.1331 10.5427 28.1623 10.6313 28.1738C10.72 28.1853 10.81 28.1788 10.8961 28.1547C10.9821 28.1306 11.0624 28.0894 11.1323 28.0336C11.2021 27.9777 11.26 27.9084 11.3025 27.8297C11.3451 27.751 11.3713 27.6645 11.3798 27.5754C11.3883 27.4864 11.3787 27.3965 11.3518 27.3112C11.1942 26.7526 10.8591 26.2606 10.3972 25.9099C9.93536 25.5591 9.37193 25.3686 8.79226 25.3672Z" fill="#2E58FF"/>
<path d="M16.7994 23.2453C16.8777 23.0871 16.8901 22.9042 16.834 22.7368C16.7778 22.5694 16.6577 22.4311 16.4998 22.3523C15.864 22.0396 15.2994 21.5991 14.8411 21.0583C14.7851 20.9894 14.7159 20.9325 14.6377 20.8908C14.5594 20.849 14.4736 20.8234 14.3853 20.8153C14.297 20.8072 14.208 20.8168 14.1235 20.8436C14.039 20.8704 13.9606 20.9139 13.8931 20.9714C13.8255 21.0289 13.7701 21.0993 13.7301 21.1786C13.6901 21.2578 13.6663 21.3442 13.6601 21.4328C13.6539 21.5214 13.6655 21.6103 13.694 21.6943C13.7226 21.7784 13.7676 21.8559 13.8265 21.9223C14.4026 22.602 15.1124 23.1554 15.9116 23.5483C16.0696 23.6252 16.2515 23.6366 16.4178 23.5798C16.5841 23.5231 16.7212 23.4028 16.7994 23.2453Z" fill="#2E58FF"/>
<path d="M39.8131 27.3444H37.9446C37.7747 25.8738 37.0497 24.5238 35.9179 23.5712C34.7862 22.6186 33.3335 22.1354 31.8575 22.2206C30.3815 22.3058 28.9939 22.9529 27.979 24.0295C26.9641 25.106 26.3987 26.5305 26.3987 28.0109C26.3987 29.4914 26.9641 30.9158 27.979 31.9924C28.9939 33.0689 30.3815 33.7161 31.8575 33.8013C33.3335 33.8865 34.7862 33.4033 35.9179 32.4507C37.0497 31.498 37.7747 30.1481 37.9446 28.6774H39.8131C39.9852 28.6708 40.148 28.5976 40.2673 28.4734C40.3867 28.3491 40.4534 28.1834 40.4534 28.0109C40.4534 27.8385 40.3867 27.6728 40.2673 27.5485C40.148 27.4242 39.9852 27.3511 39.8131 27.3444ZM32.1964 32.4724C31.3151 32.4724 30.4536 32.2107 29.7209 31.7204C28.9881 31.2301 28.4169 30.5333 28.0797 29.718C27.7424 28.9026 27.6542 28.0055 27.8261 27.1399C27.9981 26.2744 28.4225 25.4793 29.0456 24.8553C29.6688 24.2313 30.4628 23.8063 31.3271 23.6342C32.1915 23.462 33.0874 23.5504 33.9017 23.8881C34.7159 24.2258 35.4118 24.7977 35.9014 25.5315C36.391 26.2652 36.6524 27.1279 36.6524 28.0104C36.6513 29.1936 36.1816 30.328 35.3462 31.1647C34.5108 32.0014 33.378 32.4721 32.1964 32.4734V32.4724Z" fill="#2E58FF"/>
<path d="M32.1965 25.3438C31.4899 25.3438 30.8124 25.6248 30.3128 26.1251C29.8132 26.6253 29.5326 27.3038 29.5326 28.0113C29.5326 28.7187 29.8132 29.3972 30.3128 29.8975C30.8124 30.3977 31.4899 30.6788 32.1965 30.6788C32.286 30.6822 32.3754 30.6676 32.4592 30.6357C32.543 30.6037 32.6194 30.5552 32.684 30.493C32.7486 30.4307 32.8 30.3561 32.8351 30.2735C32.8702 30.1909 32.8884 30.102 32.8884 30.0123C32.8884 29.9225 32.8702 29.8337 32.8351 29.7511C32.8 29.6685 32.7486 29.5938 32.684 29.5316C32.6194 29.4694 32.543 29.4208 32.4592 29.3889C32.3754 29.357 32.286 29.3423 32.1965 29.3458C31.933 29.3458 31.6754 29.2675 31.4563 29.1209C31.2373 28.9744 31.0665 28.766 30.9657 28.5222C30.8648 28.2785 30.8385 28.0103 30.8899 27.7515C30.9413 27.4927 31.0682 27.255 31.2545 27.0685C31.4408 26.8819 31.6781 26.7549 31.9366 26.7034C32.195 26.6519 32.4628 26.6783 32.7063 26.7793C32.9497 26.8803 33.1578 27.0513 33.3041 27.2706C33.4505 27.49 33.5287 27.7479 33.5287 28.0117C33.5353 28.184 33.6084 28.3471 33.7324 28.4666C33.8565 28.5862 34.0221 28.6529 34.1943 28.6529C34.3664 28.6529 34.5319 28.5862 34.656 28.4666C34.7801 28.3471 34.8532 28.184 34.8599 28.0117C34.8593 27.3045 34.5786 26.6263 34.0792 26.1261C33.5799 25.6259 32.9028 25.3445 32.1965 25.3438Z" fill="#2E58FF"/>
<path d="M39.8131 16.1004H29.5371L31.9997 8.38435C32.0938 8.087 32.28 7.82741 32.5314 7.64328C32.7829 7.45914 33.0863 7.36003 33.3978 7.36035H39.8101C39.9822 7.35367 40.145 7.28053 40.2643 7.15627C40.3837 7.032 40.4504 6.86628 40.4504 6.69385C40.4504 6.52142 40.3837 6.35569 40.2643 6.23143C40.145 6.10716 39.9822 6.03402 39.8101 6.02735H33.3978C32.8038 6.02654 32.2249 6.2152 31.7451 6.566C31.2653 6.91679 30.9096 7.41148 30.7294 7.97835L28.133 16.1004H24.6517C23.9091 16.1014 23.1972 16.3973 22.6721 16.9231C22.147 17.4489 21.8516 18.1617 21.8505 18.9054V25.8733C21.8496 26.4251 22.0115 26.9647 22.3158 27.4246C22.6202 27.8845 23.0534 28.2442 23.5612 28.4583C23.6421 28.4952 23.7296 28.5154 23.8185 28.5178C23.9074 28.5202 23.9959 28.5048 24.0787 28.4724C24.1615 28.44 24.237 28.3914 24.3008 28.3293C24.3646 28.2673 24.4153 28.1931 24.45 28.1111C24.4846 28.0291 24.5026 27.941 24.5027 27.852C24.5028 27.763 24.4851 27.6748 24.4507 27.5927C24.4163 27.5106 24.3658 27.4363 24.3022 27.374C24.2386 27.3118 24.1632 27.2629 24.0805 27.2303C23.8138 27.118 23.5862 26.9293 23.4263 26.6878C23.2664 26.4464 23.1813 26.1631 23.1817 25.8733V23.7893H24.2213C24.3109 23.7928 24.4002 23.7782 24.484 23.7462C24.5678 23.7143 24.6443 23.6658 24.7089 23.6035C24.7735 23.5413 24.8249 23.4666 24.86 23.3841C24.8951 23.3015 24.9132 23.2126 24.9132 23.1229C24.9132 23.0331 24.8951 22.9442 24.86 22.8616C24.8249 22.779 24.7735 22.7044 24.7089 22.6422C24.6443 22.5799 24.5678 22.5314 24.484 22.4995C24.4002 22.4675 24.3109 22.4529 24.2213 22.4563H23.1837V20.4563H25.6354C25.8074 20.4497 25.9702 20.3765 26.0896 20.2523C26.209 20.128 26.2757 19.9623 26.2757 19.7899C26.2757 19.6174 26.209 19.4517 26.0896 19.3274C25.9702 19.2032 25.8074 19.13 25.6354 19.1233H23.1837V18.9054C23.1842 18.5151 23.3393 18.141 23.6149 17.8651C23.8904 17.5891 24.264 17.4339 24.6537 17.4334H39.8081C39.8977 17.4368 39.987 17.4222 40.0708 17.3902C40.1546 17.3583 40.2311 17.3098 40.2957 17.2475C40.3603 17.1853 40.4117 17.1107 40.4468 17.0281C40.4819 16.9455 40.5 16.8566 40.5 16.7668C40.5 16.6771 40.4819 16.5882 40.4468 16.5056C40.4117 16.4231 40.3603 16.3484 40.2957 16.2862C40.2311 16.2239 40.1546 16.1754 40.0708 16.1435C39.987 16.1115 39.8977 16.0969 39.8081 16.1004H39.8131Z" fill="#2E58FF"/>
<path d="M23.4873 10.8898L24.3951 11.8738C24.5 11.9876 24.6413 12.0611 24.7945 12.0818L26.0089 12.2528L25.7542 13.7818C25.7321 13.9531 25.7772 14.1263 25.88 14.2649C25.9828 14.4036 26.1353 14.4969 26.3054 14.5253C26.4755 14.5536 26.65 14.5148 26.7921 14.417C26.9342 14.3192 27.0329 14.17 27.0674 14.0008L27.4349 11.8008C27.4495 11.713 27.4464 11.6232 27.4258 11.5366C27.4052 11.4501 27.3675 11.3685 27.3149 11.2967C27.2623 11.225 27.1959 11.1645 27.1197 11.1188C27.0434 11.0732 26.9587 11.0432 26.8707 11.0308L25.2159 10.7978L24.0835 9.56884C23.9756 9.45234 23.8296 9.37826 23.672 9.35992C23.5144 9.34159 23.3554 9.38021 23.2237 9.46884L21.3911 10.6978L19.5007 10.1388C19.4138 10.1132 19.3226 10.1055 19.2327 10.1164C19.1427 10.1272 19.0559 10.1563 18.9776 10.2019C18.8992 10.2475 18.831 10.3086 18.7771 10.3815C18.7231 10.4544 18.6846 10.5375 18.6639 10.6258L18.2294 12.4798L16.1992 12.9308C16.0288 12.9688 15.88 13.0721 15.785 13.2188C15.6899 13.3654 15.6561 13.5435 15.6909 13.7148L16.1193 15.8218C16.1354 15.9089 16.1687 15.992 16.2172 16.066C16.2657 16.1401 16.3285 16.2038 16.4018 16.2533C16.4751 16.3028 16.5576 16.3373 16.6443 16.3545C16.7311 16.3718 16.8204 16.3716 16.9071 16.3539C16.9938 16.3363 17.0761 16.3015 17.1492 16.2516C17.2223 16.2018 17.2848 16.1378 17.333 16.0635C17.3811 15.9892 17.414 15.9061 17.4298 15.8189C17.4455 15.7317 17.4437 15.6423 17.4245 15.5558L17.125 14.0898L18.9225 13.6898C19.0442 13.6617 19.1555 13.6 19.2438 13.5116C19.3321 13.4231 19.3938 13.3117 19.4218 13.1898L19.7913 11.6148L21.3053 12.0628C21.3991 12.0906 21.4978 12.0972 21.5945 12.0824C21.6911 12.0675 21.7833 12.0315 21.8645 11.9768L23.4873 10.8898Z" fill="#2E58FF"/>
</svg>
