<svg width="40" height="41" viewBox="0 0 40 41" fill="none" xmlns="http://www.w3.org/2000/svg">
<path opacity="0.15" fill-rule="evenodd" clip-rule="evenodd" d="M37.7468 17.581C38.5689 15.9511 39.0014 14.1525 39.0101 12.3269C38.9964 9.23951 37.7639 6.28245 35.5807 4.09929C34.1604 2.67894 32.4125 1.66096 30.5142 1.11923C30.4876 1.10837 30.4601 1.09919 30.432 1.0918C30.27 1.04829 30.1072 1.00831 29.9438 0.971859C29.1007 0.776527 28.2322 0.673817 27.3531 0.669922C25.0371 0.685958 22.7939 1.37966 20.8896 2.6416C20.2331 3.0757 19.6192 3.57628 19.0583 4.13738C18.7936 4.40209 18.5424 4.67858 18.3053 4.96576C16.6375 6.98172 15.6758 9.50416 15.5921 12.1429C15.5685 13.2838 15.7119 14.4176 16.0143 15.5092C16.0146 15.5101 16.0148 15.5109 16.015 15.5118C16.0153 15.5126 16.0155 15.5134 16.0157 15.5141C16.2249 16.2678 16.5098 17.0012 16.8679 17.703C17.7453 19.4227 19.0347 20.8985 20.6211 21.9989C20.3235 22.6482 19.9208 23.2439 19.4291 23.7619C19.3193 23.8759 19.2458 24.0198 19.2178 24.1756C19.1898 24.3313 19.2086 24.4918 19.2719 24.6369C19.3351 24.7819 19.44 24.905 19.5732 24.9904C19.6309 25.0274 19.6928 25.0567 19.7572 25.0777C19.8425 25.1059 19.9324 25.1197 20.0232 25.118C20.3909 25.1158 20.7575 25.079 21.1182 25.0079C21.1323 25.0052 21.1464 25.0022 21.1603 24.9989C22.1837 24.7895 23.1391 24.3066 23.9201 23.5919C25.6728 24.1025 27.5201 24.1992 29.3166 23.8743C31.113 23.5495 32.8095 22.812 34.2724 21.7199C35.7353 20.6278 36.9246 19.211 37.7468 17.581ZM21.4295 28.6942C21.1958 29.0338 20.9246 29.346 20.621 29.6249C15.73 34.0459 6.08902 23.8249 12.321 19.5639C12.7146 19.175 12.9693 18.6674 13.0457 18.1194C13.1221 17.5715 13.0161 17.0136 12.744 16.5319C11.6312 14.5857 10.0177 12.9728 8.07102 11.8609C7.58871 11.5937 7.03251 11.4908 6.48655 11.5679C6.28626 11.5961 6.09134 11.648 5.90558 11.7217C5.83547 11.7493 5.76666 11.7801 5.69934 11.8138C5.45549 11.9355 5.23123 12.0964 5.03617 12.2918C4.73497 12.584 4.44925 12.8917 4.18018 13.2138L4.18255 13.2152C3.48977 14.044 2.9525 14.9215 2.55641 15.8336C0.0503345 21.5962 3.18062 28.73 8.33315 33.6149C8.34714 33.6274 8.36159 33.6392 8.37647 33.6505C14.3265 39.2683 22.9499 41.8867 28.717 35.9599C29.1063 35.5696 29.3579 35.0632 29.4338 34.5173C29.4861 34.1416 29.4532 33.7612 29.3403 33.4035C29.2895 33.2417 29.2223 33.0845 29.1391 32.9344C28.0407 31.0115 26.4537 29.4137 24.5393 28.3024C24.3183 28.1681 24.0796 28.0695 23.8318 28.0085C23.5235 27.9324 23.2016 27.9147 22.8829 27.9587C22.3361 28.0342 21.8291 28.2872 21.44 28.6789L21.4364 28.6841L21.4361 28.6844L21.4295 28.6942Z" fill="#4465F0"/>
<path fill-rule="evenodd" clip-rule="evenodd" d="M27.3875 9.15869e-05C30.6424 0.0126557 33.759 1.31733 36.0521 3.62724L36.0481 3.63024C38.2615 5.827 39.5554 8.7841 39.6668 11.9006C39.7783 15.017 38.6989 18.059 36.6481 20.4082C34.7328 22.6461 32.0873 24.134 29.1801 24.6082C29.0922 24.625 29.0017 24.624 28.9142 24.6052C28.8267 24.5863 28.7438 24.5501 28.6706 24.4986C28.5973 24.4471 28.5352 24.3814 28.4878 24.3054C28.4405 24.2294 28.4089 24.1446 28.3949 24.0562C28.381 23.9677 28.385 23.8774 28.4066 23.7905C28.4283 23.7036 28.4672 23.622 28.521 23.5504C28.5749 23.4789 28.6426 23.4189 28.7201 23.374C28.7976 23.3292 28.8833 23.3003 28.9721 23.2892C31.579 22.8681 33.9517 21.5353 35.6677 19.5281C37.3836 17.521 38.3314 14.9699 38.3421 12.3292C38.3211 9.41278 37.1502 6.62239 35.0839 4.56412C33.0176 2.50585 30.2226 1.34591 27.3061 1.33624C24.4303 1.37964 21.6809 2.52527 19.6251 4.53674C17.5694 6.54822 16.3641 9.27206 16.2581 12.1462C16.2199 13.9676 16.6332 15.7701 17.4612 17.3929C18.2892 19.0157 19.506 20.4082 21.0031 21.4462C21.1316 21.5356 21.2246 21.6673 21.2659 21.8183C21.3072 21.9692 21.2942 22.1299 21.2291 22.2722C20.9009 22.988 20.4569 23.6448 19.9151 24.2162C19.8952 24.2344 19.8817 24.2586 19.8767 24.2851C19.8717 24.3116 19.8753 24.339 19.8871 24.3632C19.8969 24.3887 19.9147 24.4103 19.9377 24.4249C19.9608 24.4395 19.9879 24.4463 20.0151 24.4442C21.2935 24.4351 22.5234 23.9536 23.4681 23.0922C23.5991 22.9729 23.7722 22.9105 23.9492 22.9187C24.0369 22.9228 24.1229 22.9441 24.2023 22.9815C24.2817 23.0188 24.353 23.0714 24.4121 23.1362C24.5315 23.2673 24.5939 23.4403 24.5856 23.6174C24.5774 23.7944 24.4991 23.9609 24.3681 24.0802C23.1804 25.1631 21.6343 25.7686 20.0271 25.7802C19.7386 25.783 19.4556 25.7008 19.2134 25.5437C18.9713 25.3867 18.7809 25.1618 18.6658 24.8972C18.5507 24.6325 18.5161 24.3399 18.5663 24.0557C18.6165 23.7715 18.7493 23.5084 18.9481 23.2992C19.2644 22.9661 19.5403 22.5969 19.7701 22.1992C18.36 21.1239 17.1991 19.7564 16.367 18.1905C15.5348 16.6245 15.0511 14.8972 14.949 13.1268C14.8469 11.3564 15.1288 9.5849 15.7754 7.93366C16.422 6.28243 17.418 4.79053 18.6951 3.56024C21.006 1.2681 24.1327 -0.0124725 27.3875 9.15869e-05ZM30.2776 12.4322C29.9458 12.9652 29.4783 13.4005 28.9231 13.6936C28.6286 13.8418 28.3805 14.0679 28.2057 14.3474C28.031 14.6269 27.9363 14.949 27.9321 15.2786C27.9254 15.4512 27.8522 15.6145 27.7278 15.7342C27.6033 15.8539 27.4373 15.9208 27.2646 15.9208C27.0919 15.9208 26.926 15.8539 26.8015 15.7342C26.6771 15.6145 26.6038 15.4512 26.5971 15.2786C26.6008 14.7063 26.7612 14.1459 27.0609 13.6583C27.3606 13.1706 27.7881 12.7744 28.2971 12.5126C28.6437 12.3303 28.9355 12.0592 29.1429 11.727C29.3502 11.3949 29.4656 11.0136 29.4772 10.6222C29.4888 10.2308 29.3961 9.84335 29.2088 9.49951C29.0215 9.15566 28.7462 8.86776 28.411 8.66526C28.0759 8.46277 27.6929 8.35296 27.3014 8.34706C26.9099 8.34117 26.5238 8.43939 26.1827 8.6317C25.8417 8.82401 25.5578 9.10349 25.3602 9.44154C25.1626 9.77959 25.0583 10.1641 25.0581 10.5556C25.0515 10.7282 24.9782 10.8915 24.8538 11.0112C24.7293 11.1309 24.5633 11.1978 24.3906 11.1978C24.2179 11.1978 24.052 11.1309 23.9275 11.0112C23.8031 10.8915 23.7298 10.7282 23.7231 10.5556C23.7237 9.9278 23.8909 9.31136 24.2078 8.76937C24.5247 8.22737 24.9799 7.77926 25.5268 7.47085C26.0736 7.16244 26.6926 7.00481 27.3204 7.01406C27.9481 7.02331 28.5622 7.19912 29.0997 7.52351C29.6373 7.8479 30.079 8.30923 30.3798 8.86032C30.6806 9.41142 30.8296 10.0325 30.8117 10.6601C30.7937 11.2877 30.6094 11.8992 30.2776 12.4322ZM27.2321 17.1074C27.0549 17.1074 26.885 17.1778 26.7597 17.3031C26.6345 17.4283 26.5641 17.5983 26.5641 17.7754V18.1094C26.5606 18.1993 26.5753 18.2889 26.6073 18.3729C26.6393 18.4569 26.6879 18.5336 26.7502 18.5984C26.8125 18.6632 26.8873 18.7147 26.97 18.7499C27.0527 18.7851 27.1417 18.8033 27.2316 18.8033C27.3215 18.8033 27.4105 18.7851 27.4932 18.7499C27.5759 18.7147 27.6507 18.6632 27.713 18.5984C27.7753 18.5336 27.8239 18.4569 27.8559 18.3729C27.8879 18.2889 27.9026 18.1993 27.8991 18.1094V17.7794C27.8996 17.6914 27.8828 17.6042 27.8495 17.5228C27.8162 17.4414 27.7672 17.3673 27.7052 17.3048C27.6432 17.2424 27.5695 17.1928 27.4884 17.1589C27.4072 17.1251 27.3201 17.1076 27.2321 17.1074ZM24.4257 27.6975C24.5924 27.6508 24.7708 27.6707 24.9231 27.753C26.914 28.9227 28.5648 30.5921 29.7121 32.596C30.0502 33.1908 30.1879 33.8786 30.1049 34.5577C30.0219 35.2368 29.7225 35.8712 29.2511 36.367C16.7681 49.373 -8.38089 24.237 4.64011 11.748C5.13569 11.2769 5.7697 10.9777 6.44843 10.8947C7.12715 10.8116 7.81458 10.9492 8.40911 11.287C10.4422 12.4522 12.1299 14.1357 13.3001 16.166C13.7168 16.78 13.8855 17.529 13.7724 18.2624C13.6592 18.9958 13.2725 19.6591 12.6901 20.119C12.0817 20.4881 11.5959 21.0287 11.2934 21.6728C10.991 22.317 10.8855 23.0361 10.9901 23.74C11.4741 27.703 17.0631 31.937 20.1791 29.13C20.2854 29.0343 20.4197 28.9753 20.5621 28.9616C20.7045 28.9479 20.8475 28.9803 20.9701 29.054C22.9549 30.2391 24.7332 31.7397 26.2351 33.497C26.2949 33.5632 26.3407 33.6408 26.37 33.725C26.3993 33.8093 26.4115 33.8986 26.4057 33.9876C26.3999 34.0766 26.3764 34.1636 26.3365 34.2433C26.2965 34.3231 26.241 34.3941 26.1732 34.4521C26.1054 34.5101 26.0267 34.5539 25.9417 34.5809C25.8567 34.608 25.7671 34.6178 25.6783 34.6096C25.5895 34.6015 25.5031 34.5757 25.4244 34.5337C25.3458 34.4916 25.2763 34.4343 25.2201 34.365C23.913 32.836 22.382 31.5137 20.6791 30.443C16.6171 33.445 10.2491 28.689 9.66411 23.902C9.53505 22.9572 9.67987 21.9953 10.0814 21.1304C10.4829 20.2656 11.1242 19.5341 11.9291 19.023L11.9621 19.001C12.5891 18.603 12.5631 17.558 12.1451 16.832C11.0922 15.0065 9.57391 13.493 7.74511 12.446C7.40118 12.2503 7.00341 12.1705 6.61063 12.2184C6.21786 12.2663 5.85092 12.4394 5.56411 12.712C5.44277 12.8287 5.32577 12.9457 5.21311 13.063C6.9387 14.1758 8.49387 15.5329 9.83011 17.092C9.93926 17.2272 9.99143 17.3996 9.97555 17.5726C9.95966 17.7457 9.87697 17.9057 9.74503 18.0188C9.61309 18.1319 9.44227 18.1891 9.26884 18.1783C9.09541 18.1675 8.93301 18.0895 8.81611 17.961C7.52504 16.4542 6.01604 15.1487 4.33911 14.088C-4.34889 25.662 17.4881 46.694 28.2881 35.438C28.5609 35.1509 28.734 34.7836 28.7819 34.3904C28.8298 33.9973 28.7499 33.5992 28.5541 33.255C27.5219 31.4549 26.0377 29.9554 24.2481 28.905C24.1019 28.8123 23.9973 28.6665 23.9565 28.4982C23.9157 28.33 23.9418 28.1524 24.0293 28.003C24.1169 27.8537 24.259 27.7441 24.4257 27.6975Z" fill="#4465F0"/>
</svg>
